<?xml version="1.0" standalone="no"?>
<!DOCTYPE svg PUBLIC "-//W3C//DTD SVG 1.1//EN" "http://www.w3.org/Graphics/SVG/1.1/DTD/svg11.dtd" >
<!--
2013-9-30: Created.
-->
<svg>
<metadata>
Created by iconfont
</metadata>
<defs>

<font id="iconfont" horiz-adv-x="1024" >
  <font-face
    font-family="iconfont"
    font-weight="500"
    font-stretch="normal"
    units-per-em="1024"
    ascent="896"
    descent="-128"
  />
    <missing-glyph />
    
    <glyph glyph-name="x" unicode="x" horiz-adv-x="1001"
d="M281 543q-27 -1 -53 -1h-83q-18 0 -36.5 -6t-32.5 -18.5t-23 -32t-9 -45.5v-76h912v41q0 16 -0.5 30t-0.5 18q0 13 -5 29t-17 29.5t-31.5 22.5t-49.5 9h-133v-97h-438v97zM955 310v-52q0 -23 0.5 -52t0.5 -58t-10.5 -47.5t-26 -30t-33 -16t-31.5 -4.5q-14 -1 -29.5 -0.5
t-29.5 0.5h-32l-45 128h-439l-44 -128h-29h-34q-20 0 -45 1q-25 0 -41 9.5t-25.5 23t-13.5 29.5t-4 30v167h911zM163 247q-12 0 -21 -8.5t-9 -21.5t9 -21.5t21 -8.5q13 0 22 8.5t9 21.5t-9 21.5t-22 8.5zM316 123q-8 -26 -14 -48q-5 -19 -10.5 -37t-7.5 -25t-3 -15t1 -14.5
t9.5 -10.5t21.5 -4h37h67h81h80h64h36q23 0 34 12t2 38q-5 13 -9.5 30.5t-9.5 34.5q-5 19 -11 39h-368zM336 498v228q0 11 2.5 23t10 21.5t20.5 15.5t34 6h188q31 0 51.5 -14.5t20.5 -52.5v-227h-327z" />
    

    
    <glyph glyph-name="search1" unicode="&#58883;" d="M1016.502713-172.362972l-324.291529 324.291529C754.503751 221.880047 792.287767 314.04241 792.287767 415.012534c0 218.598404-177.112575 395.774803-395.647154 395.774803C178.106033 810.723513 0.865809 633.610938 0.865809 415.012534c0-218.470755 177.176399-395.710979 395.774803-395.710979 100.714827 0 192.621893 37.656367 262.445733 99.629813l324.355354-324.355354c8.935409-8.935409 23.487361-8.743936 32.678068 0.44677S1025.501947-181.298381 1016.502713-172.362972L1016.502713-172.362972zM47.649059 415.012534c0 192.430419 156.561134 348.991553 348.991553 348.991553 192.430419 0 348.927729-156.561134 348.927729-348.991553s-156.49731-348.927729-348.927729-348.927729C204.210193 66.020981 47.649059 222.582115 47.649059 415.012534L47.649059 415.012534zM47.649059 415.012534"  horiz-adv-x="1024" />

    
    <glyph glyph-name="fenxiang" unicode="&#58895;" d="M513.502213 320.554128M262.515902 326.309202c-1.084705 1.176802-2.026146 2.5071-2.814092 3.970428-0.777713 1.453095-1.37123 2.957355-1.780553 4.482081C259.589246 332.019251 261.113973 329.194926 262.515902 326.309202zM761.674433 37.644757c-0.13303-0.450255-0.296759-0.890276-0.470721-1.340531-0.184195-0.460488-0.378623-0.910743-0.593518-1.340531C760.947885 35.864204 761.306043 36.75448 761.674433 37.644757zM865.059058 147.77297c-57.008388 0-106.833167-31.395034-133.080971-77.812203l-422.420799 168.057577c3.366677 12.576433 5.157463 25.787316 5.157463 39.407522 0 19.002796-3.489474 37.207413-9.854439 54.010101l359.917256 194.581674c27.895327-37.19718 72.337515-61.306274 122.295324-61.306274 84.238566 0 152.779615 68.530816 152.779615 152.779615 0 84.238566-68.541049 152.769382-152.779615 152.769382-84.238566 0-152.779615-68.530816-152.779615-152.769382 0-19.657712 3.735068-38.455847 10.519588-55.729256l-359.477234-194.356546c-27.813462 38.046524-72.767304 62.800301-123.390261 62.800301-84.238566 0-152.779615-68.541049-152.779615-152.779615s68.541049-152.779615 152.779615-152.779615c56.107879 0 105.236809 30.402427 131.812071 75.601862l423.055249-168.30317c-2.957355-11.839653-4.523013-24.211425-4.523013-36.951587 0-84.238566 68.530816-152.779615 152.769382-152.779615s152.779615 68.541049 152.779615 152.779615S949.297624 147.77297 865.059058 147.77297zM787.072893 729.328116c61.674665 0 111.847367-50.172703 111.847367-111.837134 0-61.674665-50.172703-111.847367-111.847367-111.847367-61.664432 0-111.847367 50.172703-111.847367 111.847367C675.225525 679.155413 725.408461 729.328116 787.072893 729.328116zM161.945369 165.578498c-61.674665 0-111.847367 50.172703-111.847367 111.847367s50.172703 111.847367 111.847367 111.847367c40.727587 0 76.440973-21.88852 95.975888-54.511521 1.667989-2.742461 3.192715-5.566786 4.594645-8.452509 7.214309-14.776542 11.266601-31.364335 11.266601-48.883337C273.782503 215.751201 223.609801 165.578498 161.945369 165.578498zM865.059058-116.854013c-61.664432 0-111.837134 50.172703-111.837134 111.847367 0 14.07046 2.609431 27.53717 7.367805 39.939641 0.010233 0.010233 0.010233 0.020466 0.020466 0.030699 0.337691 0.900509 0.695848 1.790786 1.064238 2.681062 0.010233 0.020466 0.010233 0.040932 0.020466 0.061398 16.812921 40.543392 56.81396 69.134567 103.364159 69.134567 61.674665 0 111.847367-50.172703 111.847367-111.847367C976.906425-66.68131 926.733723-116.854013 865.059058-116.854013z"  horiz-adv-x="1024" />

    
    <glyph glyph-name="dingwei" unicode="&#58905;" d="M702.895213 428.751363c0-105.114013-85.21173-190.32472-190.323697-190.32472-105.115036 0-190.325743 85.21173-190.325743 190.32472s85.21173 190.32472 190.325743 190.32472C617.682459 619.076082 702.895213 533.865375 702.895213 428.751363zM512.56947 569.989107c-78.004585 0-141.237745-63.234183-141.237745-141.237745s63.23316-141.237745 141.237745-141.237745c78.003562 0 141.236722 63.234183 141.236722 141.237745S590.573031 569.989107 512.56947 569.989107zM909.214209 415.321492c0-219.060181-397.789819-627.321492-397.789819-627.321492S115.925754 196.261311 115.925754 415.321492c0 219.061205 177.583534 396.644739 396.644739 396.644739C731.630674 811.966231 909.214209 634.382697 909.214209 415.321492zM512.56947 760.651518c-191.93438 0-347.528088-155.593707-347.528088-347.528088 0-191.933357 347.157651-549.640272 347.157651-549.640272s347.897501 357.706915 347.897501 549.640272C860.097558 605.057811 704.50385 760.651518 512.56947 760.651518z"  horiz-adv-x="1024" />

    
    <glyph glyph-name="shangpin" unicode="&#59033;" d="M512.000918 384.002753c-125.270728 0-229.799445 90.438835-251.747429 209.457591 14.627706 10.295746 24.192893 27.28951 24.192893 46.535526 0 31.419556-25.468619 56.895517-56.888175 56.895517-31.419556 0-56.888175-25.475961-56.888175-56.895517 0-22.766651 13.386857-42.405479 32.709966-51.489746 24.62976-148.108966 153.635886-261.391546 308.628262-261.391546 154.985034 0 283.991159 113.28258 308.620919 261.391546 19.32311 9.084266 32.702624 28.723095 32.702624 51.489746 0 31.419556-25.461276 56.895517-56.880833 56.895517s-56.895517-25.475961-56.895517-56.895517c0-19.246016 9.572529-36.247122 24.200236-46.535526C741.798528 474.434246 637.278988 384.002753 512.000918 384.002753L512.000918 384.002753zM910.219979 896l-28.409212 0c-0.007342 0-0.022027 0-0.036712 0L682.665443 896c-0.007342 0-0.022027 0-0.036712 0l-3.550004 0c0.022027-0.07893 0.042218-0.165202 0.056903-0.244132-14.038486-1.734619-24.91611-13.687891-24.91611-28.199956 0-14.512065 10.877624-26.465336 24.91611-28.199956-0.022027-0.086272-0.036712-0.165202-0.056903-0.244132l231.139416 0c31.362654 0 56.895517-25.532864 56.895517-56.888175l0-796.4473c0-31.362654-25.532864-56.888175-56.895517-56.888175L113.780021-71.111825c-31.362654 0-56.888175 25.525521-56.888175 56.888175L56.891846 782.22365c0 31.355311 25.525521 56.888175 56.888175 56.888175L316.47535 839.111825c-0.022027 0.07893-0.034876 0.15786-0.056903 0.244132 14.038486 1.734619 24.91611 13.687891 24.91611 28.199956 0 14.512065-10.877624 26.465336-24.91611 28.199956 0.014685 0.086272 0.034876 0.165202 0.056903 0.244132l-3.548169 0c-0.014685 0-0.022027 0-0.036712 0L113.780021 896c-0.027534 0-0.049561 0-0.071587 0C50.990469 895.957782 0.003671 844.948957 0.003671 782.22365l0-796.4473c0-62.747334 51.023509-113.77635 113.77635-113.77635l796.439957 0c62.754676 0 113.77635 51.030852 113.77635 113.77635L1023.996329 782.22365C1023.996329 844.976491 972.974655 896 910.219979 896L910.219979 896zM910.219979 896"  horiz-adv-x="1024" />

    
    <glyph glyph-name="search" unicode="&#58899;" d="M937.024 70.528l-176.512 176.576c-2.624 2.624-5.568 4.608-8.32 6.784 38.208 58.688 60.544 128.512 60.544 203.776 0 206.784-167.552 374.4-374.4 374.4C231.616 832.064 64 664.448 64 457.664c0-206.784 167.68-374.4 374.4-374.4 75.264 0 145.216 22.4 203.904 60.608 2.176-2.816 4.096-5.696 6.72-8.256l176.512-176.576C840.96-56.32 861.056-64 881.216-64c20.16 0 40.32 7.68 55.744 23.04C967.68-10.176 967.68 39.744 937.024 70.528M438.336 201.536c-141.184 0-256.128 114.944-256.128 256.128 0 141.184 114.944 256.128 256.128 256.128 141.184 0 256.128-114.944 256.128-256.128C694.464 316.48 579.52 201.536 438.336 201.536"  horiz-adv-x="1024" />

    
    <glyph glyph-name="canjiatuxiang" unicode="&#58901;" d="M1190.126933-128C1168.759467-128 1151.419733-111.104 1151.419733-90.350933L1151.419733-89.873067 1150.976-85.504C1151.010133-84.104533 1151.112533-82.7392 1151.2832-81.373867L1150.8736-81.373867C1124.386133 97.450667 970.752 232.823467 786.261333 241.9712 779.639467 241.595733 772.983467 241.322667 766.293333 241.322667 759.569067 241.322667 752.9472 241.595733 746.325333 241.9712 562.210133 232.823467 408.8832 97.962667 381.952-80.315733 382.190933-81.988267 382.3616-83.729067 382.3616-85.469867L382.3616-85.947733 382.805333-90.350933C382.5664-111.138133 365.090133-128 343.6544-128 322.082133-128 304.5376-110.8992 304.5376-89.9072L304.5376-89.429333 304.093867-85.026133C304.128-80.759467 304.9472-76.629333 306.346667-72.8064 321.262933 31.266133 372.872533 126.976 453.256533 198.417067 496.469333 236.817067 546.167467 266.513067 599.722667 286.549333 506.333867 341.572267 443.8016 441.412267 443.8016 555.2128 443.8016 728.302933 588.458667 869.102933 766.293333 869.102933 944.093867 869.102933 1088.750933 728.2688 1088.750933 555.2128 1088.750933 441.4464 1026.2528 341.640533 932.932267 286.583467 986.5216 266.5472 1036.288 236.8512 1079.534933 198.417067 1160.669867 126.293333 1212.552533 29.422933 1226.888533-75.776 1227.810133-79.018667 1228.356267-82.432 1228.356267-85.947733L1228.356267-86.4256 1228.8-90.760533C1228.561067-111.342933 1211.2896-128 1190.126933-128ZM1012.872533 555.1104C1012.872533 687.5136 902.212267 795.2384 766.190933 795.2384 630.1696 795.2384 519.509333 687.5136 519.509333 555.1104 519.509333 430.045867 618.325333 327.031467 743.936 316.040533 751.4112 316.381867 758.8864 316.586667 766.395733 316.586667 773.8368 316.586667 781.243733 316.381867 788.650667 316.074667 914.158933 327.133867 1012.872533 430.08 1012.872533 555.1104ZM497.425067 820.3264C497.425067 820.3264 474.077867 822.135467 462.097067 822.135467 326.075733 822.135467 215.4496 714.410667 215.4496 582.0416 215.4496 456.942933 314.231467 353.928533 439.842133 342.9376 440.7296 343.005867 441.617067 343.005867 442.504533 343.074133 444.484267 343.3472 446.498133 343.517867 448.546133 343.517867 449.706667 343.517867 450.833067 343.4496 451.959467 343.381333 457.1136 342.9376 461.994667 341.504 466.397867 339.2512 478.651733 333.0048 487.048533 320.477867 487.048533 306.039467 487.048533 285.354667 469.8112 268.561067 448.546133 268.561067 447.214933 268.561067 445.883733 268.629333 444.586667 268.765867 443.8016 268.8 443.016533 268.834133 442.231467 268.9024 258.116267 259.754667 104.7552 124.859733 77.858133-53.384533 78.097067-55.0912 78.267733-56.797867 78.267733-58.5728L78.267733-59.050667 78.711467-63.453867C78.472533-84.241067 60.996267-101.102933 39.560533-101.102933 17.988267-101.102933 0.443733-84.002133 0.443733-63.010133L0.443733-62.498133 0-58.129067C0.034133-53.828267 0.853333-49.732267 2.2528-45.8752 17.169067 58.1632 68.778667 153.9072 149.162667 225.314133 192.375467 263.748267 242.0736 293.410133 295.6288 313.4464 202.274133 368.503467 139.707733 468.343467 139.707733 582.109867 139.707733 755.2 284.3648 896 462.165333 896 472.576 896 482.850133 895.488 492.987733 894.5664 494.045867 894.634667 495.138133 894.702933 496.2304 894.702933 517.3248 894.702933 534.459733 878.045867 534.459733 857.4976 534.459733 837.358933 517.973333 820.9408 497.425067 820.3264Z"  horiz-adv-x="1229" />

    
    <glyph glyph-name="maikefenghuatong" unicode="&#58923;" d="M811.722292 473.61297l0-74.487481L763.592109 399.125489 763.592109 598.521818c0 97.311303-62.204737 186.870038-153.283082 221.085304-93.087095 34.970466-200.506617 6.069229-264.113283-70.098521-35.19764-42.147936-54.745858-96.076172-54.745858-150.987806l0-199.396329-48.130184 0 0 74.487481L215.816301 473.611947l0-98.552573c0-167.233815 132.476197-303.731606 297.948903-311.00322l0-96.957239 27.503401 0 0 96.957239c165.470659 7.27366 297.956066 143.770428 297.956066 311.004243l0 98.552573L811.722292 473.61297 811.722292 473.61297zM318.951239 442.672284l139.234111 0 0 27.503401L318.951239 470.175685l0 46.411029 139.234111 0 0 27.503401L318.951239 544.090115l0 46.411029 139.234111 0 0 27.503401L319.93873 618.004545c7.033184 75.509764 54.517661 139.29551 120.484072 169.778778l0-91.852988 27.503401 0L467.926202 798.303934c14.665001 4.38282 30.02585 7.045463 45.837978 8.085142l0-110.460788 27.503401 0L541.267581 806.389076c15.813151-1.039679 31.174-3.703345 45.837978-8.085142l0-102.374622 27.503401 0 0 91.852988c65.966411-30.483268 113.450888-94.26799 120.484072-169.778778L596.84641 618.003522l0-27.503401 139.234111 0 0-46.411029L596.84641 544.089092l0-27.503401 139.234111 0 0-46.411029L596.84641 470.174662l0-27.503401 139.234111 0 0-43.546795L318.951239 399.124466 318.951239 442.672284zM735.789902 371.623112c-2.316765-84.712357-57.840336-161.576979-137.513934-190.446493-80.009242-28.991288-171.715897-4.959965-227.608881 59.038628-31.719422 36.320207-50.107211 83.187631-51.426253 131.406842L735.789902 371.623112 735.789902 371.623112zM527.515369 90.863706c-155.548682 0-282.152125 125.644605-284.022729 280.759405l48.245817 0c2.312672-95.688339 64.609507-182.730765 154.411789-215.855186 91.069135-33.592073 195.888436-6.28003 259.422448 66.922179 35.776831 41.221844 56.409754 94.358041 57.728796 148.933007l48.245817 0C809.677727 216.508311 683.065074 90.863706 527.515369 90.863706z"  horiz-adv-x="1024" />

    
    <glyph glyph-name="wujiaoxing" unicode="&#58893;" d="M973.505546 488.282505c-2.919434 8.994909-10.909737 15.398788-20.323556 16.292202L653.415041 532.999758 533.773829 809.297455C530.015284 817.979475 521.459971 823.59596 511.999607 823.59596s-18.015677-5.616485-21.772929-14.298505l-119.641212-276.297697-299.763071-28.425051c-9.41899-0.893414-17.404121-7.297293-20.328727-16.292202-2.923313-8.994909-0.221091-18.86901 6.874505-25.126788l225.863111-199.162828L239.826354 69.66303c17.336889 7.586909 35.463758 13.319758 53.125172 20.174869L332.600496 267.33899c1.883798 8.442828-0.974869 17.247677-7.465374 22.970182L129.852375 462.504081l259.171556 24.576c8.612202 0.818424 16.09697 6.257778 19.536162 14.197657l103.439515 238.882909 103.439515-238.882909c3.439192-7.939879 10.92396-13.379232 19.534869-14.197657l259.171556-24.576L698.864092 290.307879c-6.490505-5.722505-9.347879-14.526061-7.464081-22.970182l56.753131-254.072242L524.076859 145.736404c-3.727515 2.19798-7.898505 3.299556-12.07596 3.299556s-8.353616-1.101576-12.07596-3.299556L275.847365 13.266747l0.284444 1.272242c-13.271919-9.941333-29.266747-16.315475-43.508364-24.657455-2.468202-1.445495-4.914424-2.924606-7.34901-4.419232-0.210747-0.350384-0.444768-0.69301-0.703354-1.022707-1.73899-2.205737-3.510303-4.386909-5.251879-6.588768l-1.727354-7.730424c-2.060929-9.231515 1.555394-18.808242 9.206949-24.367838 7.656727-5.560889 17.878626-6.040566 26.020202-1.228283l259.181899 153.223758 259.181899-153.223758c3.737859-2.212202 7.908848-3.302141 12.070788-3.302141 4.909253 0 9.808162 1.519192 13.949414 4.530424 7.651556 5.559596 11.273051 15.136323 9.212121 24.367838l-65.64202 293.873778 225.859232 199.162828C973.72793 469.413495 976.430152 479.287596 973.505546 488.282505zM511.999607 149.03596"  horiz-adv-x="1024" />

    
    <glyph glyph-name="jianzhu" unicode="&#58909;" d="M658.91404-45.500455 110.260427-45.500455 110.260427 750.258421c0 33.924399 27.596689 61.523687 61.520089 61.523687l425.613434 0c33.924999 0 61.520089-27.599288 61.520089-61.523687L658.91404-45.500455zM148.585243-7.170642l472.009777 0L620.595021 750.258421c0 12.790728-10.408943 23.198671-23.20127 23.198671L171.780517 773.457092c-12.790328 0-23.195274-10.407943-23.195274-23.198671L148.585243-7.170642zM940.306656-45.500455 82.355947-45.500455c-10.582225 0-19.162008 8.585179-19.162008 19.169003 0 10.576829 8.579583 19.161009 19.162008 19.161009l857.950709 0c10.580626 0 19.165006-8.58418 19.165006-19.161009C959.471462-36.915475 950.887282-45.500455 940.306656-45.500455zM214.141796 592.924493l129.095074 0 0-52.445842-129.095074 0L214.141796 592.924493zM423.587592 592.924493l129.095673 0 0-52.445842-129.095673 0L423.587592 592.924493zM214.141796 465.843454l129.095074 0 0-52.442244-129.095074 0L214.141796 465.843454zM423.587592 465.843454l129.095673 0 0-52.442244-129.095673 0L423.587592 465.843454zM214.141796 340.617757l129.095074 0 0-52.449239-129.095074 0L214.141796 340.617757zM423.587592 340.617757l129.095673 0 0-52.449239-129.095673 0L423.587592 340.617757zM214.141796 215.385864l129.095074 0 0-52.443243-129.095074 0L214.141796 215.385864zM423.587592 215.385864l129.095673 0 0-52.443243-129.095673 0L423.587592 215.385864zM923.163279-45.500455 620.595021-45.500455 620.595021 634.274858l241.045971 0c33.924 0 61.522088-27.597289 61.522088-61.522088L923.163079-45.500455zM658.91404-7.170642l225.917228 0L884.831268 572.75257c0 12.791327-10.401947 23.197272-23.190277 23.197272L658.91404 595.949842 658.91404-7.170642zM696.82034 439.622232l57.489822 0 0-125.230694-57.489822 0L696.82034 439.622232zM795.15327 439.622232l57.479829 0 0-125.230694-57.479829 0L795.15327 439.622232zM696.82034 267.168556l57.489822 0 0-125.229694-57.489822 0L696.82034 267.168556zM795.15327 267.168556l57.479829 0 0-125.229694-57.479829 0L795.15327 267.168556z"  horiz-adv-x="1024" />

    
    <glyph glyph-name="shequ" unicode="&#58882;" d="M976.167779 15.068102C976.167779 15.068102 693.84101 15.068102 693.84101 15.068102 693.84101 15.068102 573.320003-128 573.320003-128 573.320003-128 452.798996 15.068102 452.798996 15.068102 452.798996 15.068102 214.280732 15.068102 214.280732 15.068102 161.686717 15.068102 119.044851 57.709968 119.044851 110.303983 119.044851 110.303983 119.044851 681.719268 119.044851 681.719268 119.044851 734.313283 161.686717 776.955149 214.280732 776.955149 214.280732 776.955149 976.167779 776.955149 976.167779 776.955149 1028.761794 776.955149 1071.40366 734.313283 1071.40366 681.719268 1071.40366 681.719268 1071.40366 110.303983 1071.40366 110.303983 1071.40366 57.709968 1028.761794 15.068102 976.167779 15.068102ZM1023.785719 681.719268C1023.785719 708.02818 1002.476691 729.337208 976.167779 729.337208 976.167779 729.337208 214.280732 729.337208 214.280732 729.337208 187.97182 729.337208 166.662792 708.02818 166.662792 681.719268 166.662792 681.719268 166.662792 110.303983 166.662792 110.303983 166.662792 83.995071 187.97182 62.686042 214.280732 62.686042 214.280732 62.686042 484.488735 63.424121 484.488735 63.424121 484.488735 63.424121 573.320003-60.834895 573.320003-60.834895 573.320003-60.834895 662.151271 63.424121 662.151271 63.424121 662.151271 63.424121 976.167779 62.686042 976.167779 62.686042 1002.476691 62.686042 1023.785719 83.995071 1023.785719 110.303983 1023.785719 110.303983 1023.785719 681.719268 1023.785719 681.719268ZM833.313958 372.512172C807.005045 372.512172 785.696017 393.845009 785.696017 420.130112 785.696017 446.439024 807.005045 467.771862 833.313958 467.771862 859.62287 467.771862 880.931898 446.439024 880.931898 420.130112 880.931898 393.845009 859.62287 372.512172 833.313958 372.512172ZM595.224255 372.512172C568.915343 372.512172 547.606315 393.845009 547.606315 420.130112 547.606315 446.439024 568.915343 467.771862 595.224255 467.771862 621.533167 467.771862 642.842196 446.439024 642.842196 420.130112 642.842196 393.845009 621.533167 372.512172 595.224255 372.512172ZM357.134553 372.512172C330.825641 372.512172 309.516613 393.845009 309.516613 420.130112 309.516613 446.439024 330.825641 467.771862 357.134553 467.771862 383.443465 467.771862 404.752494 446.439024 404.752494 420.130112 404.752494 393.845009 383.443465 372.512172 357.134553 372.512172ZM809.504987 848.120161C809.052617 848.120161 808.671673 848.358251 808.219303 848.38206 808.219303 848.38206 95.235881 848.38206 95.235881 848.38206 68.926969 848.38206 47.61794 827.073031 47.61794 800.764119 47.61794 800.764119 47.61794 253.157804 47.61794 253.157804 47.61794 253.157804 47.570322 253.157804 47.570322 253.157804 47.40366 240.134297 36.856286 229.634542 23.80897 229.634542 10.761655 229.634542 0.214281 240.134297 0.047618 253.157804 0.047618 253.157804 0 253.157804 0 253.157804 0 253.157804 0 800.764119 0 800.764119 0 853.358134 42.641866 896 95.235881 896 95.235881 896 809.504987 896 809.504987 896 809.504987 896 809.504987 895.76191 809.504987 895.76191 822.647539 895.76191 833.313958 885.095492 833.313958 871.929131 833.313958 858.78658 822.647539 848.120161 809.504987 848.120161Z"  horiz-adv-x="1072" />

    
    <glyph glyph-name="qq" unicode="&#58903;" d="M534.377148 831.88168c302.340933 0 317.210595-288.721751 317.210595-288.721751 45.862537-60.731176 21.084201-115.245767 21.084201-115.245767 147.456377-231.735875 52.05047-298.68466 26.02677-303.621089-26.02677-4.937452-50.829665 28.51852-50.829665 28.51852s-8.650007-33.429367-29.740348-50.823526c76.854389-35.897581 63.201437-80.536244 63.201437-80.536244s-16.117073-134.765333-335.797929-49.576115l-27.27111 4.964058c-306.406528-110.594841-344.484775 38.423101-344.484775 38.423101s-12.401448 61.926398 47.078225 85.505419c-34.707476 21.084201-47.078225 65.669652-47.078225 65.669652s-30.992875-50.79692-71.881121-32.212656c-40.895409 18.587334-65.668629 183.380564 87.973634 302.33991 0 0-22.280446 70.63678 28.517497 112.778576C218.386334 549.343769 232.035192 831.88168 534.377148 831.88168M265.464559 533.226696c-66.916039-56.986899-22.303982-114.024963-22.303982-114.024963C95.705224 328.732256 121.729947 182.527382 121.729947 182.527382s23.52274 11.789511 40.251749 45.857421c16.731056 34.07098 42.754756-5.574972 42.754756-5.574972s16.117073-78.070076 65.462944-108.651582c49.348941-30.582529-2.174526-50.095955-2.174526-50.095955s-54.318116-0.788969-49.63956-37.673018c4.673439-36.885072 179.871647-83.065857 285.004079-1.24741l55.757908-7.437389c183.415356-63.783699 273.856182-4.298909 279.895735 7.111978 6.0416 11.411911-27.704992 33.809013-58.724473 46.788629-31.022551 12.986779-39.003316 26.66736-11.562337 44.936445 27.445072 18.262946 38.281885 54.513568 54.342676 92.036159 16.054651 37.525662 40.250726 19.197224 43.3626 8.650007 3.105734-10.541077 26.02063-45.825698 26.02063-45.825698s59.743686 63.312978-64.446801 250.297626c0 0 26.951839 56.026014-18.591427 101.592816 0 0-11.124362 262.724657-280.062534 262.724657C260.442172 786.01812 265.464559 533.226696 265.464559 533.226696"  horiz-adv-x="1024" />

    
    <glyph glyph-name="combinedshape" unicode="&#58884;" d="M96.106897 552.577065 96.106897 552.577065 134.908835-42.385998C136.175506-61.808288 153.961927-78.451613 173.523072-78.451613L850.476927-78.451613C870.050651-78.451613 887.823657-61.821103 889.091164-42.385998L927.893104 552.577065C928.995224 569.476245 917.05781 582.193548 899.99008 582.193548L124.00992 582.193548C106.864069 582.193548 95.000503 569.541769 96.106897 552.577065L96.106897 552.577065ZM46.663547 549.352499C43.695997 594.854929 78.195077 631.741935 124.00992 631.741935L899.99008 631.741935C945.674853 631.741935 980.303111 594.84125 977.336454 549.352499L938.534514-45.610564C935.566965-91.112993 896.153953-128 850.476927-128L173.523072-128C127.85776-128 88.432143-91.099314 85.465486-45.610564L46.663547 549.352499ZM792.23938 707.656175C751.201668 815.021647 642.896904 887.741935 520.258065 887.741935 397.810414 887.741935 289.638524 815.247831 248.456849 708.126005 243.547126 695.354829 249.920094 681.021628 262.69127 676.111907 275.462446 671.202183 289.795647 677.575151 294.70537 690.346328 328.446921 778.114894 418.09313 838.193548 520.258065 838.193548 622.581114 838.193548 712.334873 777.929169 745.956636 689.965778 750.841704 677.185151 765.16258 670.784535 777.943207 675.669605 790.723835 680.554673 797.124449 694.875549 792.23938 707.656175ZM726.709677 334.451613C758.635299 334.451613 784.516129 360.332443 784.516129 392.258065 784.516129 424.183686 758.635299 450.064516 726.709677 450.064516 694.784056 450.064516 668.903226 424.183686 668.903226 392.258065 668.903226 360.332443 694.784056 334.451613 726.709677 334.451613ZM297.290323 334.451613C329.215944 334.451613 355.096774 360.332443 355.096774 392.258065 355.096774 424.183686 329.215944 450.064516 297.290323 450.064516 265.364701 450.064516 239.483871 424.183686 239.483871 392.258065 239.483871 360.332443 265.364701 334.451613 297.290323 334.451613Z"  horiz-adv-x="1024" />

    
    <glyph glyph-name="home" unicode="&#58951;" d="M840.42-63.373h-217.485c-29.928 0-54.281 24.354-54.281 54.281l0 177.060c0 4.2-3.552 7.752-7.755 7.752h-81.861c-4.201 0-7.755-3.552-7.755-7.752v-177.058c0-29.928-24.354-54.281-54.281-54.281h-232.842c-29.927 0-54.281 24.354-54.281 54.281l-0 370.173c0 4.202-3.552 7.755-7.755 7.755h-15.84c-25.519 0-34.358 14.525-36.97 20.764-2.613 6.247-6.762 22.734 11.14 40.916l401.166 385.458c10.231 10.375 23.898 16.094 38.477 16.094 14.464 0 28.051-5.633 38.25-15.864l97.447-97.756v20.317c0 29.927 24.354 54.281 54.283 54.281h87.851c29.928 0 54.281-24.355 54.281-54.281v-198.13c0-11.088 7.309-29.085 15.039-37.046l77.14-73.030c17.753-18.271 13.539-34.744 10.904-40.982-2.634-6.233-11.517-20.735-36.984-20.735h-15.85c-4.203 0-7.755-3.553-7.755-7.755v-370.175c-0.002-29.931-24.356-54.284-54.283-54.284zM479.038 222.249h81.861c29.928 0 54.281-24.359 54.281-54.281v-177.058c0-4.2 3.552-7.755 7.755-7.755h217.485c4.201 0 7.755 3.555 7.755 7.755l0 370.173c0 27.33 20.302 50.003 46.619 53.745l-60.914 56.334c-16.075 16.545-28.2 46.411-28.2 69.472l0 198.128c0 4.202-3.553 7.754-7.754 7.754h-87.852c-4.201 0-7.755-3.552-7.755-7.754v-45.587c0-26.982-16.878-39.264-32.554-39.264-6.999 0-17.719 2.392-29.089 13.791l-115.286 115.651c-1.893 1.899-4.127 2.19-5.295 2.19-1.173 0-3.43-0.288-5.33-2.228l-384.531-368.554c26.096-3.932 46.169-26.505 46.169-53.675v-370.175c0-4.202 3.554-7.755 7.755-7.755h232.842c4.204 0 7.755 3.553 7.755 7.755v177.057c0.002 29.925 24.356 54.281 54.283 54.281z"  horiz-adv-x="1024" />

    
    <glyph glyph-name="rexiao" unicode="&#58885;" d="M872.803 140.006h0.061v0.369zM511.734 796.9c-231.772 0-413.332-184.875-413.332-420.869 0-14.544 2.728-57.821 7.815-82.746h-0.073c0.132-0.528 0.25-0.937 0.366-1.467 0.63-2.871 1.289-5.337 1.978-7.623 1.803-7.009 3.637-13.782 5.528-20.173l1.202-4.633c0.176-0.998 0.689-1.817 0.967-2.756 26.596-86.674 59.201-118.988 59.201-118.988h0.059c0.117-0.997 0.117-2.081 0.307-2.962 1.671-19.82 6.187-72.364-16.098-118.37-1.802-4.37-2.696-8.914-2.638-13.167-1.203-7.008 0.41-14.045 4.618-19.908 4.441-6.275 11.171-10.439 18.824-11.727 1.087-0.179 2.201-0.235 3.153-0.296 0.792-0.058 1.569-0.116 2.346-0.116 3.092 0 6.099 0.528 8.372 1.406 26.609 5.573 85.253 31.141 117.961 53.894 60.871-33.456 129.778-51.138 199.444-51.138 228.213 0 413.876 184.286 413.876 410.827-0.002 226.51-185.666 410.811-413.878 410.811zM511.734 29.361c-67.966 0-136.286 20.056-194.021 56.442-10.906 4.338-25.832 2.23-35.61-6.009-18.254-16.979-38.192-30.525-59.304-40.437 4.472 35.657 8.855 58.35 7.052 77.496 0.542 3.081 0.484 24.425-8.253 41.404-38.426 51.81-52.309 98.491-56.928 119.193l-0.265 1.701c-1.085 4.75-2.521 13.223-4.002 23.342-3.636 24.716-7.565 59.23-7.565 73.538 0 202.275 158.512 366.843 353.325 366.843l5.512-0.057c201.588-3.049 359.484-159.761 359.484-356.729-0-196.689-161.24-356.727-359.425-356.727zM401.178 476.942c-15.51-0.747-23.369-8.636-23.369-23.414v-57.734h-84.769v57.822c-0.762 14.719-8.21 22.578-22.401 23.326-14.764-0.747-22.241-8.636-22.241-23.414v-160.125c0-14.134 7.506-21.23 22.329-21.23 14.046 0 21.552 7.097 22.314 21.23v59.931h84.769v-59.931c0-14.134 7.888-21.23 23.429-21.23 14.015 0 21.522 7.097 22.343 21.23l0 160.213c-0.823 14.719-8.27 22.579-22.403 23.326zM534.914 478.055c-60.55-5.16-93.508-40.317-97.875-104.664 3.664-64.948 36.622-99.342 97.932-102.302h0.119c60.577 2.961 93.535 37.354 97.962 102.509-5.188 64.169-38.087 99.298-98.138 104.457zM535.090 310.292c-33.017 1.407-49.76 22.109-51.226 63.129 1.407 40.377 18.179 61.078 51.166 63.263 32.254-2.186 49.35-22.917 52.251-63.115-2.168-41.168-19.291-61.869-52.192-63.276zM755.472 474.786h-104.268c-11.081-0.805-17.066-7.564-17.856-20.232 0.79-14.030 6.832-21.169 17.974-21.169h29.144v-139.981c0-14.134 7.505-21.23 22.343-21.23 13.956 0 21.876 7.097 23.457 21.23l-0 139.981h29.204c12.553 0 19.353 7.14 20.145 21.435-1.552 12.43-8.298 19.16-20.144 19.966z"  horiz-adv-x="1024" />

    
    <glyph glyph-name="yonghu" unicode="&#58904;" d="M515.541449 888.917101c-280.359429 0-508.458551-228.120391-508.458551-508.458551s228.120391-508.458551 508.458551-508.458551 508.458551 228.120391 508.458551 508.458551S795.900879 888.917101 515.541449 888.917101zM515.541449-85.864196c-257.132626 0-466.301477 209.190121-466.301477 466.322747 0 257.132626 209.168851 466.322747 466.301477 466.322747s466.301477-209.190121 466.301477-466.322747S772.674075-85.864196 515.541449-85.864196zM614.574414 371.822944 614.574414 371.822944c47.751075 31.96876 79.230625 86.398604 79.230625 148.187857 0 98.437405-79.804915 178.24232-178.24232 178.24232-98.437405 0-178.24232-79.804915-178.24232-178.24232 0-61.810523 31.479551-116.219097 79.251895-148.187857-100.266622-39.519598-171.244501-137.170014-171.244501-251.453545 0-0.23397 0-0.446669 0.02127-0.659369 0-0.04254-0.02127-0.10635-0.02127-0.14889 0-15.612155 12.65563-28.246516 28.267786-28.246516 15.590885 0 21.886796 12.63436 21.886796 28.246516 0 0.340319-0.08508 0.659369-0.10635 1.020958 0.10635 118.005774 102.159649 219.995264 220.207964 219.995264 118.112124 0 220.207964-102.095839 220.207964-220.207964 0-0.14889-1.467628-29.054774 21.971875-29.054774 15.505806 0 28.076356 12.57055 28.076356 28.055086 0 0.06381-0.02127 0.12762-0.02127 0.2127 0 0.25524 0.02127 0.510479 0.02127 0.786989C785.797645 234.65293 714.798496 332.303346 614.574414 371.822944zM515.541449 385.265563c-74.402343 0-134.723968 60.321625-134.723968 134.723968 0 74.423613 60.321625 134.723968 134.723968 134.723968 74.423613 0 134.723968-60.321625 134.723968-134.723968S589.943792 385.265563 515.541449 385.265563z"  horiz-adv-x="1024" />

    
    <glyph glyph-name="fenlei" unicode="&#58891;" d="M276.244578 832.26235c58.248635 0 110.868063-23.585161 149.015895-61.73197 0.446162-0.447185 0.893346-0.89437 1.25048-1.429559 37.34249-37.968753 60.392462-90.140996 60.392462-147.586336l0-187.429787c0-12.865006-10.363022-23.228027-23.229051-23.228027L276.244578 410.856671c-58.158584 0-110.778013 23.584138-148.925844 61.641919l-0.089028 0.089028-0.089028-0.089028c-38.057781 38.236859-61.642942 90.946338-61.642942 149.104923s23.585161 110.868063 61.73197 149.014872C165.377538 808.677189 218.085994 832.26235 276.244578 832.26235L276.244578 832.26235 276.244578 832.26235 276.244578 832.26235zM385.594055 730.864986c-27.962865 27.962865-66.645886 45.205575-109.349477 45.205575-42.702568 0-81.386612-17.242709-109.348454-45.205575-27.962865-27.962865-45.204551-66.555835-45.204551-109.259426s17.241686-81.296561 45.204551-109.259426l0-0.089028c27.962865-27.873838 66.645886-45.115524 109.348454-45.115524l154.555052 0L430.79963 621.605559c0 42.167379-16.795525 80.314187-44.13315 108.188025L385.594055 730.864986 385.594055 730.864986 385.594055 730.864986zM688.002526 305.260681M690.146353 305.260681c-12.06171 0-26.444279 10.273994-27.427676 27.427676-0.893346 14.293541 13.132088 27.962865 28.230971 27.962865l57.176211 0c58.248635 0 110.957091-23.585161 149.014872-61.732993 0.447185-0.447185 0.89437-0.893346 1.25048-1.429559 37.343513-37.968753 60.392462-90.140996 60.392462-147.586336 0-58.158584-23.585161-110.688985-61.732993-148.835793l-0.089028-0.089028c-38.145785-38.146808-90.766236-61.642942-148.924821-61.642942s-110.779036 23.585161-148.925844 61.642942l-0.089028 0.089028-0.089028-0.089028c-38.147832 38.146808-61.73197 90.766236-61.73197 148.925844L537.200962 335.277322c0 12.775978 12.863982 25.460882 28.856211 25.460882 16.616446 0 27.426653-14.918781 27.426653-26.979468L593.483826 150.794657c0-42.702568 17.242709-81.296561 45.205575-109.259426l0-0.089028c28.051893-27.873838 66.734914-45.115524 109.438505-45.115524 42.703591 0 81.386612 17.241686 109.349477 45.115524 27.873838 27.961842 45.204551 66.645886 45.204551 109.348454 0 42.168402-16.795525 80.31521-44.132126 108.189048l-1.072425 1.072425c-27.962865 27.962865-66.645886 45.204551-109.349477 45.204551L690.146353 305.260681zM276.244578-4.383588c42.703591 0 81.386612 17.241686 109.349477 45.115524 27.872814 27.962865 45.205575 66.645886 45.205575 109.349477L430.79963 304.54539 276.244578 304.54539c-42.702568 0-81.386612-17.242709-109.348454-45.205575-27.962865-27.962865-45.204551-66.555835-45.204551-109.259426 0-42.703591 17.241686-81.296561 45.204551-109.259426l1.072425-1.072425C195.930391 12.411937 234.0772-4.383588 276.244578-4.383588L276.244578-4.383588 276.244578-4.383588 276.244578-4.383588zM425.171446 1.065518c-38.147832-38.146808-90.76726-61.642942-148.925844-61.642942-57.443293 0-109.61656 23.048949-147.674341 60.392462-0.446162 0.447185-0.893346 0.893346-1.429559 1.25048C89.082898 39.213349 65.497737 91.832777 65.497737 150.080389c0 58.158584 23.585161 110.868063 61.73197 148.925844 38.146808 38.147832 90.856287 61.73197 149.014872 61.73197l187.519838 0c12.865006 0 23.229051-10.45205 23.229051-23.228027l0-187.429787c0-58.158584-23.585161-110.688985-61.732993-148.836817L425.171446 1.065518 425.171446 1.065518 425.171446 1.065518zM748.126882 776.07056c-42.703591 0-81.386612-17.242709-109.349477-45.205575-27.962865-27.962865-45.205575-66.555835-45.205575-109.259426L593.57183 467.139535l154.554028 0c42.703591 0 81.386612 17.242709 109.349477 45.115524 27.873838 27.962865 45.204551 66.645886 45.204551 109.349477s-17.241686 81.296561-45.204551 109.259426l-0.089028 0C829.423443 758.827851 790.82945 776.07056 748.126882 776.07056L748.126882 776.07056 748.126882 776.07056 748.126882 776.07056zM599.021959 770.619408c38.147832 38.057781 90.946338 61.642942 149.104923 61.642942 58.248635 0 110.957091-23.585161 149.014872-61.73197l-0.089028-0.089028 0.089028-0.089028c38.147832-38.147832 61.732993-90.678232 61.732993-148.836817 0-58.158584-23.585161-110.690008-61.732993-148.836817l-0.089028-0.089028c-38.145785-38.145785-90.766236-61.641919-148.924821-61.641919L560.518017 410.947745c-12.775978 0-23.228027 10.361999-23.228027 23.228027L537.289989 621.605559C537.379017 679.764144 560.874127 732.473623 599.021959 770.619408L599.021959 770.619408 599.021959 770.619408 599.021959 770.619408zM599.021959 770.619408"  horiz-adv-x="1024" />

    
    <glyph glyph-name="rmb" unicode="&#58880;" d="M758.91 722.564l-182.978-311.294h144.179v-68.778h-167.988v-94.785h167.988v-69.651h-167.988v-138.008h-86.417v138.008l-174.158-0v69.651h174.158v94.785h-174.158v68.778h148.603l-181.232 311.294h97.434c84.671-154.623 136.082-252.659 154.322-294.107h1.776c6.17 17.037 23.087 51.441 50.718 103.183l103.604 190.924 92.136 0z"  horiz-adv-x="1024" />

    
    <glyph glyph-name="fahuo" unicode="&#58892;" d="M979.435995 421.810333l-120.133507 136.096732c-22.512241 25.479764-66.820426 45.433796-100.793445 45.433796L659.045868 603.340861l0 81.862696c0 39.805736-32.438093 72.243829-72.243829 72.243829L77.718397 757.447387c-39.805736 0-72.243829-32.438093-72.243829-72.243829l0-374.82882c0-39.805736 32.438093-72.243829 72.243829-72.243829l10.949136 0 0-107.649445c0-39.805736 32.438093-72.243829 72.243829-72.243829l69.68562 0c5.218747-62.829619 58.020186-112.458879 122.180074-112.458879 64.159888 0 116.961327 49.526931 122.180074 112.458879L645.74318 58.237634c5.218747-62.829619 58.020186-112.458879 122.282402-112.458879 64.159888 0 116.961327 49.526931 122.180074 112.458879l56.178275 0c39.805736 0 72.243829 32.438093 72.243829 72.243829l0 166.795243C1015.455581 377.39982 1001.334266 396.944539 979.435995 421.810333zM77.718397 280.494854c-16.372539 0-29.777556 13.405016-29.777556 29.777556L47.940841 685.101229c0 16.372539 13.302688 29.777556 29.777556 29.777556l508.981313 0c16.372539 0 29.777556-13.302688 29.777556-29.777556l0-374.82882c0-16.372539-13.405016-29.777556-29.777556-29.777556L77.718397 280.494854zM352.879384-11.959628c-44.205856 0-80.123114 36.019586-80.123114 80.225442 0 44.205856 35.917258 80.123114 80.123114 80.123114 44.205856 0 80.225442-35.917258 80.225442-80.123114C433.002498 24.059958 397.08524-11.959628 352.879384-11.959628zM767.923254-11.959628c-44.205856 0-80.225442 36.019586-80.225442 80.225442 0 44.205856 36.019586 80.123114 80.225442 80.123114 44.205856 0 80.123114-35.917258 80.123114-80.123114C848.148696 24.059958 812.12911-11.959628 767.923254-11.959628zM976.059159 256.345358l0-126.068552c0-16.372539-13.405016-29.777556-29.777556-29.777556l-59.964425 0c-14.223643 51.982812-61.908664 90.458279-118.291596 90.458279-56.48526 0-104.170281-38.373139-118.393924-90.458279L471.17098 100.499251C456.947337 152.584391 409.364645 190.95753 352.879384 190.95753c-56.48526 0-104.170281-38.373139-118.291596-90.458279l-73.47177 0c-16.372539 0-29.777556 13.405016-29.777556 29.777556L131.338463 237.926252l455.565904 0c39.805736 0 72.243829 32.438093 72.243829 72.243829L659.148196 560.772259l99.463176 0c22.0006 0 54.234036-14.530629 68.866993-31.005496l132.208254-148.990107C970.94274 365.529729 976.877786 337.594084 976.059159 256.345358zM819.189767 486.584191c-6.651344 11.460777-21.181973 19.851704-34.484661 19.851704l-48.810633 0c-16.065554 0-29.163585-13.098031-29.163585-29.163585l0-207.931248c0-16.065554 12.995703-29.163585 29.163585-29.163585L862.679324 240.177476c16.065554 0 29.061257 12.995703 29.061257 29.163585l0 74.08574c0 10.539822-3.990806 25.377436-9.311882 34.484661L819.189767 486.584191zM862.576996 269.44339 735.894474 269.44339 735.894474 477.272309l48.810633 0c2.865194 0 7.879285-2.967523 9.311882-5.321075l63.341261-108.570401c2.762866-4.707105 5.321075-14.4283 5.321075-19.851704L862.576996 269.44339z"  horiz-adv-x="1024" />

    
    <glyph glyph-name="pijiu" unicode="&#59177;" d="M804.352 489.984l-82.432 0-48.64 0 0-473.6-97.792 0L575.488 487.936c-17.408-11.776-14.848-19.968-36.864-23.552l0-447.488L435.2 16.896 435.2 465.92c-19.968 4.608-20.992 12.8-36.864 24.064l0-473.6L294.4 16.384 294.4 489.984 250.88 489.984l0-445.952c0-45.568 36.864-82.432 82.432-82.432l304.128 0c45.568 0 86.528 36.864 86.528 82.432l0 64 80.384 0c36.352 0 66.048 29.696 66.048 66.048L870.4 423.936C870.4 460.288 841.216 489.984 804.352 489.984zM825.856 153.088l-101.888 0L723.968 445.952l101.888 0L825.856 153.088zM485.376 492.544c-39.424 0-75.776 16.384-102.4 45.056-19.968-14.336-43.52-22.016-68.096-22.016-53.248 0-99.84 36.352-112.64 87.552-16.896 12.8-26.624 32.768-26.624 54.272 0 37.888 30.72 69.12 69.12 69.12 1.024 0 2.048 0 3.072 0 16.896 12.288 36.352 19.456 56.32 21.504 14.848 32.768 47.616 54.784 83.968 54.784 27.136 0 52.736-11.776 70.144-32.256 18.944 4.096 36.352 4.096 55.808-0.512 17.408 20.48 43.008 32.768 70.656 32.768 35.328 0 67.584-20.48 82.944-52.224 60.928-4.096 109.056-54.272 109.056-116.224 0-64-52.224-116.224-116.224-116.224-25.088 0-49.152 8.192-69.12 23.04C564.224 510.464 525.824 492.544 485.376 492.544zM386.56 576.512l8.704-11.776c22.016-28.672 54.784-45.056 90.112-45.056 36.352 0 71.168 17.92 92.672 48.128l9.216 12.8 11.264-10.752c16.896-16.384 38.912-25.088 61.952-25.088 49.152 0 89.6 39.936 89.6 89.6 0 49.152-39.936 89.088-89.088 89.6-0.512 0-1.024 0-2.048 0l-9.728 0-3.072 9.216c-9.728 25.6-34.304 43.008-61.44 43.008-21.504 0-41.984-10.752-54.272-28.672l-5.632-7.68-9.216 2.56c-21.504 6.144-38.4 6.144-59.392 0.512l-9.216-2.56L441.856 747.52c-12.288 17.408-32.256 28.16-53.76 28.16-28.16 0-52.736-17.92-61.952-45.056L323.072 721.92l-9.216 0c-19.456-0.512-37.888-7.168-53.76-19.968l-4.608-3.584-7.68 1.024c-1.024 0-2.048 0.512-3.072 0.512-23.04 0-41.984-18.944-41.984-41.984 0-14.336 7.168-27.136 18.944-35.328l4.608-3.072 1.024-5.632C236.032 572.416 272.896 542.72 314.88 542.72c22.528 0 44.032 8.704 60.416 24.064L386.56 576.512z"  horiz-adv-x="1024" />

    
    <glyph glyph-name="shijian" unicode="&#58911;" d="M512-22.0479c-224.25653 0-406.0479 181.791369-406.0479 406.0479s181.791369 406.0479 406.0479 406.0479 406.0479-181.791369 406.0479-406.0479S736.25653-22.0479 512-22.0479L512-22.0479zM512 739.291912c-196.226127 0-355.291912-159.065785-355.291912-355.291912s159.065785-355.291912 355.291912-355.291912 355.291912 159.065785 355.291912 355.291912S708.226127 739.291912 512 739.291912L512 739.291912zM702.82921 333.833437 511.410576 333.833437l-49.563836 0 0 49.563836L461.84674 574.815907c0 13.687744 11.093662 24.78243 24.781406 24.78243 13.687744 0 24.78243-11.094686 24.78243-24.78243l0-191.418634 191.418634 0c13.687744 0 24.78243-11.093662 24.78243-24.781406C727.611639 344.940402 716.516954 333.84674 702.82921 333.833437L702.82921 333.833437z"  horiz-adv-x="1024" />

    
    <glyph glyph-name="lianxifangshi" unicode="&#58917;" d="M670.912-118.144 670.912-118.144c37.632 0 72.32 8.832 102.72 26.176 32.576 18.624 57.856 47.232 79.36 80.256 2.944 5.248 3.264 5.76 6.144 11.072 32.448 59.456-4.032 153.472-92.928 223.552-48.384 38.08-102.016 59.84-146.752 59.84-33.536 0-60.544-12.032-76.928-34.56-3.456-2.368-9.344-5.248-14.144-5.248-1.344 0-4.224 0-8.448 4.864-0.32 0.256-0.576 0.64-0.832 0.896C494.08 281.152 470.912 316.032 450.304 352.512 431.296 386.112 414.592 420.736 400.448 455.744 398.4 466.688 399.936 472.256 401.216 473.792 402.112 474.88 404.8 475.648 404.864 475.648 429.312 476.224 451.2 487.232 468.544 507.456c32.832 38.08 46.72 105.152 37.312 179.328-14.464 113.664-76.8 199.424-145.024 199.424-0.192 0-1.728 0-1.984 0-3.2-0.064-6.4-0.384-9.408-0.832C307.52 887.168 268.928 878.4 235.52 859.328c-154.944-88.512-158.272-366.784-7.488-633.472C344.384 19.968 522.368-118.144 670.912-118.144L670.912-118.144 670.912-118.144zM619.52 226.432c31.936 0 73.792-17.984 111.872-47.936 66.432-52.288 95.744-121.088 80.704-149.248-2.24-4.096-3.968-6.848-5.056-9.024-15.04-25.92-37.312-49.408-61.376-63.104-21.888-12.48-46.976-18.88-74.688-18.88-126.848 0-288.704 129.728-393.728 315.392C146.432 484.928 140.16 739.776 263.488 810.304 288.256 824.384 317.44 830.656 349.376 828.736c2.304-0.128 4.672 0 6.912 0.384C357.632 829.44 358.912 829.632 360.256 829.696c33.536 0 78.656-64.192 89.536-150.144 7.232-56.768-2.24-109.888-24-135.296-10.304-11.904-19.008-12.096-21.76-12.16-2.496 0-28.928-0.832-46.72-22.784C343.68 492.544 339.776 469.888 345.472 441.92 345.856 440.32 346.304 438.656 346.944 437.056 362.24 399.104 380.416 361.28 401.088 324.736c22.592-39.808 48-77.952 75.392-113.216 1.216-1.664 2.56-3.072 4.096-4.288 13.312-13.696 29.824-20.736 47.872-20.736 28.672 0 50.944 18.496 53.376 20.736 2.112 1.728 3.904 3.968 5.44 6.336C593.856 224.064 608.384 226.432 619.52 226.432L619.52 226.432 619.52 226.432zM708.416 416.64c13.568 0 25.6 9.6 28.032 23.36 4.864 26.048-0.896 52.352-15.936 74.176-14.976 21.76-37.632 36.416-63.616 41.216C641.344 558.144 626.56 547.904 623.808 532.416c-2.944-15.488 7.36-30.336 22.848-33.152 10.944-2.048 20.608-8.256 27.008-17.472 6.336-9.344 8.832-20.48 6.784-31.488-2.88-15.552 7.296-30.336 22.848-33.152C705.024 416.768 706.816 416.64 708.416 416.64L708.416 416.64 708.416 416.64zM804.864 418.688c13.44 0 25.408 9.6 28.032 23.36 17.28 94.464-45.504 185.344-139.84 202.688-15.552 2.816-30.464-7.424-33.28-22.912s7.36-30.336 22.912-33.216c63.488-11.648 105.6-72.768 93.952-136.256-2.752-15.488 7.552-30.272 22.912-33.216C801.344 418.816 803.2 418.688 804.864 418.688L804.864 418.688 804.864 418.688zM915.264 387.52c13.312 0 25.408 9.664 27.84 23.36 14.464 78.592-2.496 158.016-47.936 223.808-45.376 65.664-113.6 109.824-192.128 124.224-15.424 2.816-30.336-7.424-33.152-22.912-2.944-15.488 7.36-30.336 22.912-33.152 63.488-11.712 118.72-47.36 155.456-100.544 36.672-53.184 50.56-117.504 38.784-181.12-2.752-15.424 7.424-30.336 22.912-33.088C911.744 387.648 913.408 387.52 915.264 387.52L915.264 387.52 915.264 387.52z"  horiz-adv-x="1024" />

    
    <glyph glyph-name="kafei" unicode="&#59111;" d="M559.840588 617.517451c12.814864 0 23.206538 10.380418 23.206538 23.206538l0 139.241274c0 12.82612-10.392698 23.206538-23.206538 23.206538-12.814864 0-23.206538-10.380418-23.206538-23.206538l0-139.241274C536.63405 627.897869 547.025725 617.517451 559.840588 617.517451zM420.599314 617.517451c12.814864 0 23.206538 10.380418 23.206538 23.206538L443.805852 872.793462C443.806875 885.619582 433.414177 896 420.599314 896c-12.814864 0-23.206538-10.380418-23.206538-23.206538l0-232.06845C397.392776 627.897869 407.78445 617.517451 420.599314 617.517451zM699.081862 571.103352c12.814864 0 23.206538 10.380418 23.206538 23.206538L722.2884 826.379363c0 12.82612-10.392698 23.206538-23.206538 23.206538-12.814864 0-23.206538-10.380418-23.206538-23.206538l0-232.06845C675.875325 581.48377 686.266999 571.103352 699.081862 571.103352zM142.116765 617.517451c12.814864 0 23.206538 10.380418 23.206538 23.206538l0 139.241274c0 12.82612-10.392698 23.206538-23.206538 23.206538-12.814864 0-23.206538-10.380418-23.206538-23.206538l0-139.241274C118.910227 627.897869 129.301901 617.517451 142.116765 617.517451zM884.737236 408.65554l-46.414099 0L838.323137 478.276177c0 25.631774-20.782326 46.414099-46.414099 46.414099L49.28959 524.690276c-25.632797 0-46.414099-20.781302-46.414099-46.414099l0-278.482549c0-118.392434 63.547315-221.711568 158.186765-278.482549L26.083052-78.688921c-12.814864 0-23.206538-10.380418-23.206538-23.206538s10.391674-23.206538 23.206538-23.206538l789.033547 0c12.814864 0 23.206538 10.380418 23.206538 23.206538s-10.392698 23.206538-23.206538 23.206538l-134.800126 0c75.387991 45.325301 130.980123 120.248711 150.346193 208.861912l54.074569 0c76.895321 0 139.241274 62.322417 139.241274 139.241274C1023.978511 346.310609 961.632557 408.65554 884.737236 408.65554zM513.427512-78.688921 327.772138-78.688921c-82.368986 0-156.159596 35.989679-207.151967 92.827175l599.958284 0C669.597341-42.700265 595.794451-78.688921 513.427512-78.688921zM791.910061 199.793628c0-50.788733-13.81361-98.243535-37.565571-139.241274L86.854137 60.552354c-23.75196 40.99774-37.564547 88.452541-37.564547 139.241274L49.28959 478.276177l742.620471 0L791.910061 199.793628zM884.737236 176.586067l-47.581692 0c0.543376 7.684006 1.167592 15.364943 1.167592 23.206538L838.323137 362.24144l46.414099 0c51.263547 0 92.827175-41.563628 92.827175-92.827175S936.000783 176.586067 884.737236 176.586067zM281.358039 571.103352c12.814864 0 23.206538 10.380418 23.206538 23.206538L304.564577 826.379363c0 12.82612-10.392698 23.206538-23.206538 23.206538-12.814864 0-23.206538-10.380418-23.206538-23.206538l0-232.06845C258.151501 581.48377 268.543176 571.103352 281.358039 571.103352z"  horiz-adv-x="1024" />

    
    <glyph glyph-name="zhiding" unicode="&#59062;" d="M512.041 893.759c-281.225 0-509.202-227.98-509.202-509.203 0-281.225 227.978-509.202 509.202-509.202 281.228 0 509.204 227.978 509.204 509.202 0 281.223-227.979 509.203-509.204 509.203v0zM742.148 292.064c-8.57 0-16.388 3.475-22.016 9.090l-177.506 177.425v-412.124c0-17.149-13.909-31.074-31.075-31.074-17.184 0-31.105 13.925-31.105 31.074v411.156l-175.925-175.942c-5.678-5.935-13.678-9.62-22.558-9.62-17.255 0-31.242 13.985-31.242 31.255 0 8.569 3.474 16.339 9.044 21.972l229.645 229.678c5.695 5.997 13.694 9.76 22.618 9.76 8.763 0 16.708-3.655 22.352-9.487l229.887-229.949c5.616-5.614 9.090-13.403 9.090-22 0-17.244-13.97-31.216-31.211-31.216v0zM771.537 613.435h-518.992c-17.167 0-31.106 13.954-31.106 31.107 0 17.198 13.939 31.107 31.106 31.107h518.993c17.168 0 31.11-13.908 31.11-31.107-0.001-17.151-13.942-31.107-31.111-31.107v0z"  horiz-adv-x="1024" />

    
    <glyph glyph-name="pijiu1" unicode="&#59007;" d="M507.136 105.318c-0.007-11.78-9.559-21.328-21.34-21.328-5.88 0-11.204 2.378-15.064 6.224-3.856 3.875-6.242 9.217-6.246 15.117 0 5.619 2.253 11.046 6.246 15.039 3.84 3.891 9.165 6.246 15.053 6.246 5.683 0 11.11-2.253 15.053-6.246 3.891-3.891 6.298-9.165 6.298-15.053zM597.862 390.656c3.584-3.635 5.786-8.55 5.786-14.029 0-10.957-8.858-19.866-19.814-19.866-5.274 0-10.291 2.099-14.029 5.837-3.584 3.584-5.786 8.55-5.786 14.029-0 0.012-0 0.027-0 0.041 0 10.921 8.853 19.773 19.773 19.773 0.014 0 0.029-0 0.043-0 5.22 0 10.289-2.099 14.027-5.786zM291.635 444.416c5.12-5.069 8.243-12.083 8.243-19.866 0-15.514-12.595-28.109-28.109-28.109-0.063-0.001-0.138-0.001-0.213-0.001-7.694 0-14.651 3.154-19.648 8.24-5.095 5.045-8.247 12.036-8.247 19.763 0 0.038 0 0.075 0 0.113-0.001 0.058-0.001 0.133-0.001 0.208 0 7.694 3.154 14.651 8.24 19.648 5.073 5.124 12.087 8.298 19.87 8.298s14.797-3.174 19.866-8.294zM468.122 355.226c8.223-8.173 13.312-19.49 13.312-31.996 0-0.020-0-0.039-0-0.058 0-25.034-20.326-45.309-45.363-45.309-12.493 0-23.859 5.069-32.102 13.261-8.193 8.188-13.261 19.502-13.261 32 0 0.018 0 0.036 0 0.054-0.051 12.029 4.762 23.6 13.261 32.048 8.199 8.224 19.539 13.312 32.068 13.312 0.012 0 0.024-0 0.036-0 12.030 0 23.55-4.762 32.049-13.312zM328.141 236.288c6.008-5.956 9.728-14.212 9.728-23.337 0-0.004-0-0.008-0-0.011 0-18.278-14.797-33.023-33.024-33.023-9.165 0-17.408 3.635-23.398 9.626-5.978 5.961-9.677 14.205-9.677 23.313 0 0.030 0 0.060 0 0.090 0.015 18.237 14.806 33.019 33.050 33.019 0.009 0 0.018-0 0.027-0 8.754 0 17.151-3.482 23.295-9.677zM857.395 400.538v-227.021c0-44.083-35.84-79.923-79.923-79.923h-90.522v35.174h43.52c50.586 0 91.75 41.165 91.75 91.75v123.238c0 50.586-41.165 91.75-91.75 91.75h-43.52v44.954h90.522c44.083 0 79.923-35.891 79.923-79.923zM664.576 502.835h0.614c-0.205-0.358-0.41-0.717-0.614-1.024v1.024zM657.254 594.586c-2.304-1.536-4.352-3.584-5.837-5.99-2.56-1.178-4.813-2.816-6.707-4.864 2.56 5.069 7.066 9.011 12.544 10.854zM642.202 151.142v-79.667c-0.461-43.571-36.301-79.053-79.923-79.053h-266.342c-44.083 0-79.923 35.84-79.923 79.923v472.422h99.379c8.294-27.904 31.693-49.306 60.672-54.784-2.048-3.635-3.226-7.782-3.226-12.237 0-6.912 2.816-13.158 7.373-17.715 4.532-4.538 10.796-7.345 17.715-7.345 13.827 0 25.037 11.209 25.037 25.037 0 0.008-0 0.016-0 0.024 0 5.887-2.048 11.314-5.478 15.564 9.421 3.43 18.022 8.602 25.395 15.155 21.555-40.294 64.102-67.84 112.691-67.84 33.382 0 63.846 12.902 86.63 33.946v-323.43zM603.648 376.627c0 5.478-2.202 10.394-5.786 14.029-3.613 3.569-8.579 5.777-14.060 5.786 0.019-0 0.005-0-0.010-0-10.921 0-19.773-8.853-19.773-19.773 0-0.014 0-0.029 0-0.043-0-5.476 2.202-10.443 5.786-14.027 3.738-3.738 8.755-5.837 14.029-5.837 10.957 0 19.814 8.909 19.814 19.866zM500.89 90.266c3.994 3.994 6.246 9.421 6.246 15.053 0 5.888-2.406 11.162-6.298 15.053-3.832 3.858-9.14 6.246-15.005 6.246-0.017 0-0.034-0-0.050-0-5.885 0-11.21-2.355-15.050-6.246-3.994-3.994-6.246-9.421-6.246-15.053 0-5.888 2.406-11.213 6.246-15.104 3.858-3.84 9.178-6.213 15.053-6.213 5.9 0 11.241 2.394 15.104 6.264zM481.434 323.174c0 12.544-5.12 23.91-13.312 32.051-8.177 8.223-19.497 13.312-32.006 13.312-0.016 0-0.032-0-0.047-0-12.49 0-23.857-5.069-32.1-13.312-8.192-8.151-13.261-19.432-13.261-31.898 0-0.054 0-0.108 0-0.161-0-12.484 5.069-23.851 13.261-32.043 8.22-8.194 19.562-13.261 32.087-13.261 0.005 0 0.011 0 0.016 0 25.036-0 45.362 20.275 45.362 45.312zM337.869 212.941c0 8.755-3.482 17.152-9.728 23.347-5.944 5.977-14.173 9.677-23.267 9.677-0.010 0-0.021-0-0.031-0-0.008 0-0.019 0-0.030 0-18.253 0-33.050-14.797-33.050-33.050 0-9.128 3.701-17.392 9.683-23.373 5.949-5.948 14.167-9.626 23.244-9.626 0.054 0 0.109 0 0.163 0 18.219-0 33.016 14.746 33.016 33.024zM299.878 424.55c0 7.782-3.123 14.797-8.243 19.866-5.069 5.12-12.083 8.294-19.866 8.294s-14.797-3.174-19.866-8.294c-5.090-5.002-8.244-11.959-8.244-19.652 0-0.075 0-0.15 0.001-0.225-0-7.771 3.123-14.785 8.243-19.854 5.002-5.090 11.959-8.244 19.652-8.244 0.075 0 0.15 0 0.225 0.001 15.502-0 28.097 12.595 28.097 28.109zM571.085 642.048c12.339 0 22.374 9.984 22.374 22.374 0 13.978 11.315 25.293 25.293 25.293 0.008 0 0.018 0 0.027 0 12.904 0 23.551-9.664 25.099-22.149 0.115-1.147 0.217-2.12 0.217-3.144 0-12.339 9.984-22.374 22.374-22.374 4.966 0 9.574 1.638 13.261 4.403 8.909-3.738 15.206-12.595 15.206-22.886 0-6.605-2.611-12.954-7.27-17.613-4.71-4.659-10.957-7.27-17.613-7.27-4.762 0-9.165-1.485-12.8-4.096-6.177-2.125-11.010-6.757-13.36-12.648-2.972-2.2-5.276-7.628-5.276-13.516 0-45.773-37.274-83.046-83.046-83.046-45.261 0-82.534 36.813-83.046 81.818v1.229c-0.017 12.355-10.037 22.364-22.395 22.364-3.47 0-6.756-0.789-9.688-2.198-9.207-2.767-15.891-11.297-15.891-21.389 0-0.002 0-0.004 0-0.006-0-18.688-15.206-33.843-33.843-33.843-18.691 0-33.843 15.152-33.843 33.843 0 0 0 0 0 0 0 12.339-10.035 22.374-22.374 22.374h-140.851c-1.638 0-3.277-0.205-4.864-0.563-0.666 0.051-1.382 0.102-2.048 0.102-13.722 0-24.883 11.162-24.883 24.883 0 6.605 2.662 12.954 7.322 17.613s10.957 7.27 17.562 7.219c11.162 0 20.429 8.192 22.067 18.944 0.051 0.051 0.051 0.102 0.051 0.154 0.614 2.048 0.973 4.25 0.973 6.502 0 18.637 15.155 33.843 33.843 33.843 9.318 0 17.766-3.789 23.91-9.933 6.144-6.144 9.933-14.592 9.933-23.91 0-12.339 10.035-22.374 22.374-22.374 6.195 0 11.776 2.509 15.821 6.554 4.096 3.994 6.605 9.626 6.605 15.821 0 60.467 49.203 109.67 109.67 109.67s109.67-49.203 109.67-109.67c0-12.339 9.984-22.374 22.374-22.374 1.229 0 2.406 0.102 3.533 0.307 1.126-0.205 2.304-0.307 3.533-0.307zM193.638 545.485v-0.717c-0.768 0-1.485 0.051-2.202 0.102 0.768 0.154 1.485 0.358 2.202 0.614zM188.774 589.005h0.154c-8.246-1.831-14.69-8.022-16.855-15.976 2.688 8.675 9.293 14.632 17.457 16.134zM777.472 525.21h-90.522v30.771c12.134 3.021 23.347 9.318 32.358 18.33 13.107 13.056 20.429 30.771 20.378 49.254 0 19.2-7.834 36.608-20.429 49.203-11.060 11.078-25.835 18.444-42.298 20.067-4.708 24.337-29.43 41.681-58.202 41.681-0.002 0-0.004-0-0.006-0-16.025 0-30.873-5.427-42.7-14.541-22.374 57.805-78.49 98.867-144.077 98.867-62.822 0-116.992-37.683-141.056-91.648-12.953 9.875-29.363 15.821-47.163 15.821-0.033 0-0.067-0-0.1-0-21.652 0-41.313-8.806-55.547-23.040-12.354-12.346-20.626-28.775-22.619-47.089-9.689 4.593-19.724-1.397-27.967-9.692-13.107-13.005-20.48-30.72-20.429-49.203 0-33.075 23.194-60.877 54.17-67.891v-473.754c0-68.762 55.91-124.672 124.672-124.672h266.342c60.416 0 111.258 43.622 122.368 101.171h92.826c68.762 0 124.672 55.91 124.672 124.672v227.021c0 68.71-55.91 124.672-124.672 124.672zM193.638 544.768c-0.768 0-1.485 0.051-2.202 0.102 0.768 0.154 1.485 0.358 2.202 0.614v-0.717zM642.202 413.133v-341.658c-0.461-43.571-36.301-79.053-79.923-79.053h-266.342c-44.083 0-79.923 35.84-79.923 79.923v472.422h99.379c8.294-27.904 31.693-49.306 60.672-54.784-2.048-3.635-3.226-7.782-3.226-12.237 0-6.912 2.816-13.158 7.373-17.715 4.532-4.538 10.796-7.345 17.715-7.345 13.827 0 25.037 11.209 25.037 25.037 0 0.008-0 0.016-0 0.024 0 5.887-2.048 11.314-5.478 15.564 9.421 3.43 18.022 8.602 25.395 15.155 21.555-40.294 64.102-67.84 112.691-67.84 33.382 0 63.846 12.902 86.63 33.946v-61.44zM670.054 598.682c-4.762 0-9.165-1.485-12.8-4.096-2.304-1.536-4.352-3.584-5.837-5.99-2.56-1.178-4.813-2.816-6.707-4.864-3.789-3.994-6.093-9.421-6.093-15.309 0-45.773-37.274-83.046-83.046-83.046-45.261 0-82.534 36.813-83.046 81.818v1.229c-0.017 12.355-10.037 22.364-22.395 22.364-3.47 0-6.756-0.789-9.688-2.198-9.207-2.767-15.891-11.297-15.891-21.389 0-0.002 0-0.004 0-0.006-0-18.688-15.206-33.843-33.843-33.843-18.691 0-33.843 15.152-33.843 33.843 0 0 0 0 0 0 0 12.339-10.035 22.374-22.374 22.374h-140.851c-1.638 0-3.277-0.205-4.864-0.563h0.154c-8.246-1.831-14.69-8.022-16.855-15.976 2.688 8.675 9.293 14.632 17.457 16.134-1.422-0.106-2.138-0.055-2.804-0.055-13.722 0-24.883 11.162-24.883 24.883 0 6.605 2.662 12.954 7.322 17.613 4.659 4.659 10.957 7.27 17.562 7.219 11.162 0 20.429 8.192 22.067 18.944 0.051 0.051 0.051 0.102 0.051 0.154 0.614 2.048 0.973 4.25 0.973 6.502 0 18.637 15.155 33.843 33.843 33.843 9.318 0 17.766-3.789 23.91-9.933s9.933-14.592 9.933-23.91c0-12.339 10.035-22.374 22.374-22.374 6.195 0 11.776 2.509 15.821 6.554 4.096 3.994 6.605 9.626 6.605 15.821 0 60.467 49.203 109.67 109.67 109.67s109.67-49.203 109.67-109.67c0-12.339 9.984-22.374 22.374-22.374 1.229 0 2.406 0.102 3.533 0.307 1.126-0.205 2.304-0.307 3.533-0.307 12.339 0 22.374 9.984 22.374 22.374 0 13.978 11.315 25.293 25.293 25.293 0.008 0 0.018 0 0.027 0 12.904 0 23.551-9.664 25.099-22.149 0.115-1.147 0.217-2.12 0.217-3.144 0-12.339 9.984-22.374 22.374-22.374 4.966 0 9.574 1.638 13.261 4.403 8.909-3.738 15.206-12.595 15.206-22.886 0-6.605-2.611-12.954-7.27-17.613-4.71-4.659-10.957-7.27-17.613-7.27zM686.95 390.758h43.52c25.907 0 47.002-21.094 47.002-47.002v-123.238c0-25.907-21.094-47.002-47.002-47.002h-43.52v217.242zM857.395 173.517c0-44.083-35.84-79.923-79.923-79.923h-90.522v35.174h43.52c50.586 0 91.75 41.165 91.75 91.75v123.238c0 50.586-41.165 91.75-91.75 91.75h-43.52v44.954h90.522c44.083 0 79.923-35.891 79.923-79.923v-227.021z"  horiz-adv-x="1024" />

    
    <glyph glyph-name="canting" unicode="&#58910;" d="M822.575407 313.457778V781.387852c0 44.22163-30.151111 75.093333-73.272888 75.093333-22.262519 0-41.718519-8.078222-57.874963-23.969185-59.240296-58.405926-59.050667-214.281481-58.898963-351.838815v-19.418074c0-33.60237 8.722963-59.543704 25.903407-77.065481 16.308148-16.611556 39.215407-25.031111 68.152889-25.031111H778.088296v-45.700741a65.991111 65.991111 0 0 1-50.403555-63.715556v-273.825185c0-36.219259 29.961481-65.687704 66.749629-65.687704h11.757037c36.788148 0 66.74963 29.468444 66.74963 65.72563V249.742222a65.991111 65.991111 0 0 1-50.36563 63.715556zM765.800296 402.962963h-39.215407c-43.538963 0-49.569185 28.027259-49.569185 58.292148v19.456c-0.151704 116.167111-0.303407 275.304296 45.89037 320.853333a35.65037 35.65037 0 0 0 26.396445 11.112297c18.583704 0 28.785778-11.112296 28.785777-31.288889v-378.462815h-12.288z m62.65363-427.045926a22.110815 22.110815 0 0 0-22.262519-21.883259h-11.757037a22.110815 22.110815 0 0 0-22.262518 21.921185V249.742222c0 12.060444 10.012444 21.921185 22.262518 21.921185h11.757037c12.288 0 22.262519-9.860741 22.262519-21.921185v-273.825185zM419.726222 836.911407a22.110815 22.110815 0 0 1-22.148741 19.569778 22.072889 22.072889 0 0 1-22.224592-21.921185v-0.606815a21.617778 21.617778 0 0 1 0.530963-4.778666c4.209778-18.735407 8.988444-38.07763 14.032592-58.519704 17.294222-70.46637 36.939852-150.300444 36.939852-219.173926 0-44.562963-25.713778-84.80237-65.460148-102.551704a214.736593 214.736593 0 0 0-28.065185-10.505481V835.887407a22.072889 22.072889 0 0 1-22.262519 21.88326 22.072889 22.072889 0 0 1-22.224592-21.921186v-397.312a185.950815 185.950815 0 0 0-26.396445 9.709038A112.753778 112.753778 0 0 0 196.683852 551.253333c0 67.356444 18.962963 145.749333 35.65037 214.888297a2951.774815 2951.774815 0 0 1 14.904889 63.791407 21.921185 21.921185 0 0 1-17.066667 26.017185 22.262519 22.262519 0 0 1-26.43437-16.839111 2925.719704 2925.719704 0 0 0-14.715259-62.843259c-17.256296-71.49037-36.826074-152.500148-36.826074-225.014519a156.634074 156.634074 0 0 1 91.78074-142.904889c15.701333-7.054222 31.023407-12.09837 44.866371-14.866963v-80.251259a65.991111 65.991111 0 0 1-49.682963-63.525926v-273.825185c0-36.219259 29.923556-65.687704 66.711704-65.687704h11.757037c36.788148 0 66.74963 29.468444 66.749629 65.72563V249.742222c0 30.90963-21.807407 56.888889-51.048296 63.867259v79.720297c13.615407 2.692741 28.823704 7.850667 46.421333 15.663407a155.799704 155.799704 0 0 1 91.591111 142.487704c0 74.069333-20.29037 156.634074-38.229333 229.451852-4.816593 19.607704-9.367704 38.153481-13.387852 55.978666zM339.892148 249.742222v-273.825185a22.110815 22.110815 0 0 0-22.262518-21.883259h-11.757037a22.110815 22.110815 0 0 0-22.224593 21.921185V249.742222c0 12.060444 9.974519 21.921185 22.224593 21.921185h11.757037c12.288 0 22.262519-9.860741 22.262518-21.921185z"  horiz-adv-x="1024" />

    
    <glyph glyph-name="ren" unicode="&#58881;" d="M609.37728 503.1936c0 89.64608-72.71936 162.37056-162.37568 162.37056-89.64608 0-162.37056-72.72448-162.37056-162.37056 0-89.6512 72.72448-162.36544 162.37056-162.36544 89.6512 0 162.37568 72.71936 162.37568 162.36544zM527.32416 880.66048c-275.69664 0-499.2-223.50336-499.2-499.2 0-275.70176 223.50336-499.2 499.2-499.2 275.70176 0 499.2 223.49824 499.2 499.2s-223.49824 499.2-499.2 499.2z m178.97472-823.88992c0 1.36192 0.18944 2.72896 0.18944 4.09088 0 134.51776-108.94848 243.5584-243.47136 243.5584-134.33344 0-243.37408-109.04064-243.37408-243.5584 0-1.36192 0.18432-2.72896 0.18432-4.09088h-36.77184c0 119.04 73.35424 220.89216 177.2032 263.13216-68.71552 32.49152-116.32128 102.29248-116.32128 183.296 0 112.03584 90.83392 202.96192 202.96704 202.96192 112.13312 0 202.96192-90.83392 202.96192-202.96192 0.1024-74.45504-40.2176-139.34592-99.92704-174.65344 116.50048-35.40992 201.41056-143.62112 201.41056-271.7696h-45.05088z m121.4208 162.37056c-8.192 82.00192-77.3632 146.07872-161.55136 146.07872-11.37664 0-22.57408-1.28-33.31584-3.54816a206.0288 206.0288 0 0 1 30.6688 40.6784c2.27328-0.18432 4.37248-0.63488 6.64576-0.63488 56.06912 0 101.48352 45.41952 101.48352 101.4784 0 56.064-45.4144 101.48352-101.48352 101.48352-2.26816 0-4.4544-0.54784-6.64576-0.64-7.64416 13.37856-16.92672 25.75872-27.30496 37.0432 10.92608 2.64192 22.21056 4.2752 33.95072 4.2752 78.45376 0 142.07488-63.62112 142.07488-142.07488 0-48.96256-24.74496-92.1088-62.5152-117.6832 66.52416-28.4928 114.304-91.56096 121.86624-166.46144h-43.87328z"  horiz-adv-x="1026" />

    
    <glyph glyph-name="yuanquan" unicode="&#58934;" d="M512-88.338C248.789-88.338 36.056 124.394 36.056 384 36.056 647.211 248.79 859.944 512 859.944c259.606 0 472.338-212.733 472.338-472.338 0-263.212-212.732-475.944-472.338-475.944z m0 912.225C270.423 823.887 72.113 625.577 72.113 384s194.704-436.282 436.281-436.282S944.676 142.423 944.676 384 753.577 823.887 512 823.887z"  horiz-adv-x="1024" />

    
    <glyph glyph-name="post" unicode="&#59079;" d="M800-64H224c-52.928 0-96 43.072-96 96V672c0 52.928 43.072 96 96 96h448c17.696 0 32-14.336 32-32s-14.304-32-32-32H224c-17.632 0-32-14.368-32-32v-640c0-17.664 14.368-32 32-32h576c17.664 0 32 14.336 32 32V544c0 17.664 14.304 32 32 32s32-14.336 32-32v-512c0-52.928-43.072-96-96-96zM511.68 353.28c-8.256 0-16.512 3.168-22.752 9.504-12.416 12.576-12.32 32.832 0.256 45.248L907.488 821.76c12.608 12.448 32.832 12.288 45.248-0.256 12.448-12.576 12.32-32.832-0.256-45.248L534.176 362.528c-6.24-6.176-14.368-9.248-22.496-9.248z"  horiz-adv-x="1024" />

    
    <glyph glyph-name="duigou" unicode="&#58886;" d="M511.979 834.441c-247.304 0-447.785-200.48-447.785-447.785s200.48-447.785 447.785-447.785 447.785 200.48 447.785 447.785-200.48 447.785-447.785 447.785zM475.044 161.626c-7.345-7.163-16.947-10.729-26.548-10.729-9.625 0-19.226 3.566-26.545 10.729l-220.708 215.381c-14.66 14.322-14.66 37.509 0 51.831 14.663 14.322 38.428 14.322 53.091 0l194.16-189.467 378.565 369.356c14.663 14.322 38.428 14.322 53.091 0 14.664-14.296 14.664-37.483 0-51.805l-405.107-395.297z"  horiz-adv-x="1024" />

    
    <glyph glyph-name="shuohuaxiaohongdian" unicode="&#58906;" d="M787.409 778.664c0-59.97 48.615-108.585 108.585-108.585s108.585 48.615 108.585 108.585c0 0 0 0 0 0 0 59.97-48.615 108.585-108.585 108.585-59.97 0-108.585-48.615-108.585-108.585z"  horiz-adv-x="1024" />

    
    <glyph glyph-name="jianshao" unicode="&#58913;" d="M512-96.376c265.035 0 481.882 216.847 481.882 481.882s-216.847 481.882-481.882 481.882-481.882-216.847-481.882-481.882 216.847-481.882 481.882-481.882zM512-36.141c-234.918 0-421.647 186.729-421.647 421.647s186.729 421.647 421.647 421.647 421.647-186.729 421.647-421.647-186.729-421.647-421.647-421.647zM301.176 355.388h421.647v60.235h-421.647z"  horiz-adv-x="1024" />

    
    <glyph glyph-name="weixin" unicode="&#58970;" d="M966.912 42.035L1036.698-128 864.717-5.427c-33.485-9.626-67.84-14.515-102.195-14.515-186.573 0-338.304 136.857-338.304 305.024 0 168.192 151.73 305.024 338.304 305.024 186.496 0 338.278-136.832 338.278-305.024 0-95.924-49.69-185.498-133.888-243.047zM762.522 546.1c-162.919 0-295.476-117.094-295.476-261.017 0-143.924 132.557-260.992 295.476-260.992 33.561 0 67.097 5.222 99.686 15.616l9.933 3.148 67.763-48.281-26.829 65.305 16.18 9.805c80.563 48.794 128.716 129.331 128.716 215.399 0 143.923-132.557 261.017-295.45 261.017z m109.952-217.856c-23.68 0-42.855 19.687-42.855 43.955 0 24.32 19.175 44.058 42.855 44.058 23.654 0 42.777-19.738 42.777-44.058 0-24.268-19.123-43.955-42.777-43.955z m-217.293 0c-23.655 0-42.855 19.687-42.855 43.955 0 24.32 19.2 44.058 42.855 44.058 23.654 0 42.777-19.738 42.777-44.058 0-24.268-19.123-43.955-42.777-43.955z m-87.757 316.698c0-28.365-22.323-51.354-49.946-51.354-27.622 0-50.048 22.989-50.048 51.354s22.426 51.353 50.048 51.353c27.623 0 49.946-22.988 49.946-51.353z m-353.971 0c0 28.365 22.349 51.353 49.92 51.353 27.622 0 50.048-22.988 50.048-51.353 0-28.365-22.426-51.354-50.048-51.354-27.571 0-49.92 22.989-49.92 51.354zM391.962 851.994C199.5 851.994 42.854 713.42 42.854 543.053c0-101.965 56.96-197.376 152.295-255.207l16.102-9.753-34.97-85.146 88.09 62.72 9.933-3.149c22.246-7.09 44.851-11.878 67.61-14.873 2.022-15.411 5.145-30.49 9.036-45.338-26.598 2.611-53.094 7.475-79.206 15.079L79.437 70.426l77.952 189.772C58.522 326.758 0 431.232 0 543.053 0 737.664 175.846 896 391.962 896 555.136 896 695.219 805.683 754.15 677.709c-15.795-0.282-31.36-1.434-46.643-3.303C651.546 779.162 531.328 851.994 391.962 851.994z"  horiz-adv-x="1101" />

    
    <glyph glyph-name="shouji" unicode="&#58907;" d="M551.424 896H176.128c-47.104 0-85.504-38.4-85.504-85.504v-852.992c0-47.104 38.4-85.504 85.504-85.504h375.296c47.104 0 85.504 38.4 85.504 85.504V810.496c0 47.104-38.4 85.504-85.504 85.504M312.832 827.904h102.4c9.216 0 16.896-7.68 16.896-16.896 0-9.216-7.68-16.896-16.896-16.896h-102.4c-9.216 0-16.896 7.68-16.896 16.896-0.512 9.216 7.168 16.896 16.896 16.896m51.2-921.6c-28.16 0-51.2 23.04-51.2 51.2s23.04 51.2 51.2 51.2 51.2-23.04 51.2-51.2-23.04-51.2-51.2-51.2m238.592 136.704H124.928V725.504h477.696v-682.496zM853.504 829.44h-218.112c1.536-6.144 2.048-12.288 2.048-18.432v-45.056h88.576c8.704 0 15.872-7.168 15.872-15.872 0-8.704-7.168-15.872-15.872-15.872h-88.576v-64H901.12v-637.952h-264.192v-54.784c8.192 13.824 23.552 23.04 40.448 23.04 26.624 0 47.616-21.504 47.616-47.616 0-26.624-21.504-47.616-47.616-47.616-19.968 0-36.864 12.288-44.032 29.696-10.24-35.328-43.008-61.44-81.92-61.44h301.568c44.032 0 79.872 35.84 79.872 79.872V749.568c0.512 44.032-35.84 79.872-79.36 79.872z"  horiz-adv-x="1024" />

    
    <glyph glyph-name="dianhua" unicode="&#58942;" d="M456.294 491.303l-52.592-53.516c27.391-60.797 85.464-128.512 152.849-151.264l45.47 45.325s107.8-18.818 132.03-30.58c21.002-10.193 27.941-32.765 24.653-60.616-3.533-29.934-42.732-95.928-113.404-96.657-70.67-0.725-174.716 52.505-249.269 131.059-74.551 78.558-141.028 178.115-130.387 262.666 10.641 84.55 84.291 99.668 102.722 101.024 18.627 1.372 33.418-4.095 44.649-18.02 14.46-17.928 43.279-129.421 43.279-129.421z m-59.715 111.946c-8.766 11.467-23.832 13.379-38.897 9.829-13.371-3.151-62.132-23.378-69.028-77.543-7.67-60.251 37.255-162.186 117.883-240.182 80.632-77.996 158.294-123.529 225.067-128.97 66.774-5.442 99.343 53.334 104.092 70.99 4.746 17.658 0.82 35.495-8.767 42.594-12.225 9.052-117.238 27.85-117.238 27.85l-47.664-46.963c-78.341 25.484-152.115 96.84-183.526 184.03l52.044 52.424c0.001 0-25.201 94.473-33.966 105.941zM512 802.115C281.081 802.115 93.884 614.92 93.884 384S281.081-34.115 512-34.115c230.918 0 418.115 187.196 418.115 418.116S742.919 802.115 512 802.115z m0-808.79c-215.764 0-390.676 174.911-390.676 390.676S296.236 774.676 512 774.676c215.763 0 390.675-174.911 390.675-390.676S727.764-6.675 512-6.675z"  horiz-adv-x="1024" />

    
    <glyph glyph-name="weixin1" unicode="&#58915;" d="M697.665255 271.761569a66.660392 66.660392 0 1 0 66.780863 66.861176 66.861176 66.861176 0 0 0-66.780863-66.861176zM1224.844549 224.175686c0 171.469804-154.603922 311.818039-350.58949 323.865098-9.175843 0.401569-18.371765 0.803137-27.547608 0.803138-208.815686 0-378.157176-145.367843-378.157176-324.668236a277.383529 277.383529 0 0 1 11.223843-78.105098c40.638745-141.552941 189.500235-246.563137 366.933333-246.563137a425.361569 425.361569 0 0 1 167.875765 33.731765l84.891608-57.22353s22.628392-15.460392 20.419764 14.456471l-24.094117 89.750588A305.894902 305.894902 0 0 1 1224.844549 224.175686zM846.707451 575.949804c8.151843 0 16.062745-0.401569 24.094118-0.803137C839.659922 756.655686 657.648941 896 437.689725 896 195.96549 896-0.020078 727.541961-0.020078 520.131765a357.175216 357.175216 0 0 1 156.611764-288.12549l-32.326274-120.269804s-11.063216-39.956078 30.800313-22.086275l120.591059 81.317647a497.684078 497.684078 0 0 1 162.113255-26.905098c4.939294 0 9.697882 0.401569 14.456471 0.401569a304.188235 304.188235 0 0 0-10.701804 79.711372c0 193.957647 181.830275 351.774118 405.202823 351.774118z m172.975686-303.987451a66.660392 66.660392 0 1 0 66.780863 66.660392 66.700549 66.700549 0 0 0-66.780863-66.660392z m-787.07451 299.570196a66.660392 66.660392 0 1 0 66.780863 66.861176 66.740706 66.740706 0 0 0-66.780863-66.861176z m395.264 0a66.660392 66.660392 0 1 0 66.780863 66.861176 66.841098 66.841098 0 0 0-66.780863-66.861176z"  horiz-adv-x="1224" />

    
    <glyph glyph-name="shoucang" unicode="&#59491;" d="M512-84.224a27.072 27.072 0 0 0-12.928 3.2 1471.616 1471.616 0 0 0-247.36 180.608c-72.256 65.216-129.92 132.032-171.392 198.336C26.88 382.528 0 467.136 0 549.056A283.584 283.584 0 0 0 282.944 832c52.8 0 108.864-19.968 157.888-55.488 28.608-21.056 53.376-46.4 71.168-73.344a295.168 295.168 0 0 0 71.168 73.344C632.192 812.608 688.256 832 741.056 832A283.264 283.264 0 0 0 1024 549.056c0-81.92-26.944-166.528-79.744-251.136-41.536-66.304-99.2-133.12-171.392-198.4-122.368-110.464-242.56-177.28-247.36-180.48a30.912 30.912 0 0 0-13.504-3.2zM282.944 778.112a229.568 229.568 0 0 1-229.056-229.12c0-163.776 126.72-312.512 232.832-408.448A1497.28 1497.28 0 0 1 512-25.984a1458.56 1458.56 0 0 1 225.28 166.528c106.176 95.936 232.832 244.672 232.832 408.512a229.568 229.568 0 0 1-229.12 229.056c-91.52 0-181.056-75.52-203.648-143.36A27.2 27.2 0 0 0 512 616.448a26.688 26.688 0 0 0-25.344 18.304c-22.592 67.84-112.064 143.36-203.712 143.36z"  horiz-adv-x="1088" />

    
    <glyph glyph-name="pinglun" unicode="&#58902;" d="M229.2-68.2c-2.8 0-5.7 0.5-8.4 1.7-8.2 3.4-13.6 11.4-13.6 20.3V110.7H182c-93.7 0-170 76.2-170 170V666.2c0 93.7 76.2 170 170 170h660c93.7 0 170-76.2 170-170v-385.5c0-93.7-76.2-170-170-170H417.2L244.7-61.7c-4.2-4.2-9.8-6.5-15.5-6.5zM182 792.2c-69.5 0-126-56.5-126-126v-385.5c0-69.5 56.5-126 126-126h47.2c12.1 0 22-9.8 22-22v-125.9l141.4 141.4c4.1 4.1 9.7 6.4 15.5 6.4h434c69.5 0 126 56.5 126 126V666.2c0 69.5-56.5 126-126 126H182zM512 473.5m-51.2 0a51.2 51.2 0 1 1 102.4 0 51.2 51.2 0 1 1-102.4 0ZM280.6 473.5m-51.2 0a51.2 51.2 0 1 1 102.4 0 51.2 51.2 0 1 1-102.4 0ZM743.8 473.5m-51.2 0a51.2 51.2 0 1 1 102.4 0 51.2 51.2 0 1 1-102.4 0Z"  horiz-adv-x="1024" />

    
    <glyph glyph-name="yanzhengma" unicode="&#59232;" d="M511.100514-61.969121c-139.746788 0-376.221594 200.298885-376.221594 389.692397V689.296241c0 8.757454 14.054087 24.62484 23.526833 24.803919h23.517623c133.053342 7.246031 225.641063 51.218522 305.374012 105.312534l13.409405 9.115612c3.028986 2.052752 6.760984 3.155876 10.458189 3.157923 3.628644 0 7.132444-1.014096 10.148128-3.097548l13.592576-9.175987c75.631538-53.741995 222.418672-111.848391 305.500902-105.312534h23.517623c9.472745-0.179079 23.340591-16.045441 23.340591-24.803919l0.183172-361.569895c-0.001023-189.396581-236.478899-389.695466-376.34746-389.695467z m305.787428 729.034035C666.140613 687.221999 631.113865 708.504722 511.100514 786.74876c-96.631828-65.24191-156.594501-98.602715-329.178161-119.683846v-329.241606c0-164.187433 217.480196-352.758206 329.241606-352.758206 91.258447 0 327.609433 174.283372 329.241606 352.758206V667.064914h-23.517623zM499.156484 273.642566c-4.364401-4.345981-10.128685-6.516414-15.887852-6.516414-5.761214 0-11.523451 2.170432-15.934924 6.516414L352.780719 387.139503c-8.778944 8.686846-8.778944 22.698978 0 31.343869 8.820899 8.689916 23.046902 8.689916 31.823799 0l98.664114-97.843422 200.905706 198.951191c8.820899 8.689916 23.046902 8.689916 31.823799 0 8.820899-8.646937 8.820899-22.657023 0-31.345915L499.156484 273.642566z"  horiz-adv-x="1024" />

    
    <glyph glyph-name="shangjiaruzhu" unicode="&#59142;" d="M614.4 179.2l-64-64c-6.4-6.4-6.4-19.2 0-25.6 0 0 6.4-6.4 12.8-6.4s6.4 0 12.8 6.4l89.6 89.6s6.4 6.4 6.4 12.8 0 6.4-6.4 12.8L576 294.4c-6.4 6.4-19.2 6.4-25.6 0s-6.4-19.2 0-25.6l64-64H140.8c-6.4 0-12.8-6.4-12.8-12.8s6.4-12.8 12.8-12.8h473.6zM908.8 544L876.8 768c0 6.4-6.4 12.8-12.8 12.8h-704c-6.4 0-12.8 0-12.8-12.8l-32-224c0-12.8-6.4-25.6-6.4-32 0-32 12.8-64 32-89.6v-185.6h32V390.4h6.4c12.8-6.4 19.2-12.8 32-12.8 6.4 0 6.4 0 12.8-6.4 6.4 0 12.8 0 19.2-6.4h32c6.4 0 12.8 0 19.2 6.4h6.4c6.4 6.4 19.2 12.8 25.6 19.2 0 0 6.4 0 6.4 6.4 12.8 6.4 19.2 12.8 25.6 19.2 0 0 0 6.4 6.4 6.4 6.4 6.4 12.8 12.8 12.8 25.6l6.4 6.4 6.4-6.4c6.4-6.4 12.8-12.8 12.8-25.6 0 0 0-6.4 6.4-6.4 6.4-6.4 19.2-12.8 25.6-19.2 0 0 6.4 0 6.4-6.4 6.4-6.4 19.2-12.8 25.6-12.8h6.4c6.4 0 12.8 0 25.6-6.4h25.6c6.4 0 19.2 0 25.6 6.4h6.4c6.4 0 19.2 6.4 25.6 12.8 0 0 6.4 0 6.4 6.4 12.8 6.4 19.2 12.8 25.6 19.2 0 0 0 6.4 6.4 6.4 6.4 6.4 12.8 12.8 12.8 25.6l6.4 6.4 6.4-6.4c6.4-6.4 12.8-12.8 12.8-25.6 0 0 0-6.4 6.4-6.4 6.4-6.4 19.2-12.8 25.6-19.2 0 0 6.4 0 6.4-6.4 6.4-6.4 19.2-12.8 25.6-12.8h6.4c6.4 0 12.8 0 19.2-6.4h32c6.4 0 12.8 0 19.2 6.4 6.4 0 6.4 0 12.8 6.4 12.8-6.4 19.2 0 32 6.4h6.4V64c0-25.6-19.2-51.2-51.2-51.2h-576c-25.6 0-51.2 19.2-51.2 51.2v76.8h-32V64c0-44.8 38.4-76.8 76.8-76.8h576c44.8 0 76.8 38.4 76.8 76.8V422.4c32 25.6 38.4 57.6 38.4 89.6v32z m-57.6-102.4c-19.2-25.6-51.2-44.8-83.2-44.8-64 0-115.2 51.2-115.2 115.2 0 6.4-6.4 12.8-12.8 12.8s-12.8-6.4-12.8-12.8C627.2 448 576 396.8 512 396.8S396.8 448 396.8 512c0 6.4-6.4 12.8-12.8 12.8s-12.8-6.4-12.8-12.8C371.2 448 320 396.8 256 396.8c-32 0-64 12.8-83.2 38.4-19.2 25.6-32 51.2-32 76.8 0 6.4 0 19.2 6.4 25.6l25.6 211.2h678.4l25.6-217.6c0-6.4 6.4-19.2 6.4-25.6 0-19.2-12.8-44.8-32-64z"  horiz-adv-x="1024" />

    
    <glyph glyph-name="shoucang1" unicode="&#58887;" d="M609.270135-128S0.00032 93.846326 0.00032 504.282026c0 410.404935 376.317329 517.313267 609.269815 229.906753C839.515303 1021.595293 1215.832632 906.626534 1215.832632 504.282026c0-402.375273-606.562496-632.282026-606.562497-632.282026z"  horiz-adv-x="1217" />

    
    <glyph glyph-name="shouji1" unicode="&#58914;" d="M750.674747 741.107071H272.032323v56.888889c0 6.723232 5.430303 12.153535 12.153536 12.153535h454.335353c6.723232 0 12.153535-5.430303 12.153535-12.153535v-56.888889z m0-580.266667H272.032323V706.973737h478.642424v-546.133333z m0-192.775758c0-6.723232-5.430303-12.153535-12.153535-12.153535H284.185859c-6.723232 0-12.153535 5.430303-12.153536 12.153535V126.707071h478.642424v-158.642425zM738.521212 844.282828H284.185859C258.585859 844.282828 237.89899 823.59596 237.89899 797.99596v-829.931314c0-25.6 20.686869-46.286869 46.286869-46.286868h454.335353c25.6 0 46.286869 20.686869 46.286869 46.286868V797.99596C784.937374 823.59596 764.121212 844.282828 738.521212 844.282828zM460.153535 58.440404h102.529293v-34.133333h-102.529293v34.133333z"  horiz-adv-x="1024" />

    
    <glyph glyph-name="dianpu" unicode="&#58888;" d="M923.398 255.848c-14.691 0-26.512-12.001-26.512-26.512v-237.908c0-11.645-9.494-20.96-20.96-20.96H162.379c-11.645 0-20.96 9.494-20.96 20.96V229.336c0 14.691-12.001 26.512-26.512 26.512s-26.693-12.001-26.693-26.512v-237.908c0-40.847 33.321-74.169 74.169-74.169H875.93c40.847 0 74.169 33.321 74.169 74.169V229.336c-0.18 14.511-12.001 26.512-26.693 26.512z m73.81 356.146c-0.357 9.494-2.509 18.991-6.627 27.946l0.357 0.357-1.075 1.79c-1.075 1.969-111.969 191.329-113.402 193.838-11.286 21.677-23.826 38.337-72.735 38.337H234.395c-41.203 0-59.835-17.019-75.243-42.638L50.23 645.489l-0.539-1.434v-0.18c-5.374-10.211-8.421-21.14-8.778-32.246-0.18-0.539-0.18-0.895-0.18-1.434v-166.249c0-80.617 62.525-146.363 139.556-146.363 44.785 0 86.708 22.573 113.044 60.551 26.335-37.979 68.254-60.551 113.044-60.551s86.708 22.573 113.044 60.551c26.335-37.979 68.254-60.551 113.044-60.551s86.708 22.573 113.044 60.551c26.335-37.979 68.254-60.551 113.044-60.551 76.855 0 139.556 65.569 139.556 146.363V610.195c-0.539 0.717-0.717 1.255-0.895 1.79z m-861.88 72.375c10.928 18.452 54.819 91.903 71.122 118.597 6.987 11.286 14.691 15.765 27.769 15.765H803.55c13.793 0 18.991-1.255 27.769-15.765 23.826-39.591 47.475-79.184 71.301-118.597H135.329z m609.639-188.82c-14.691 0-26.512-12.361-26.512-27.769v-23.648c0-50.16-38.695-91.007-86.348-91.007s-86.348 40.847-86.348 91.007V467.78c0 15.227-12.001 27.769-26.512 27.769-14.691 0-26.512-12.361-26.512-27.769v-23.648c0-50.16-38.695-91.007-86.348-91.007s-86.348 40.847-86.348 91.007V467.78c0 15.227-12.001 27.769-26.512 27.769-14.691 0-26.512-12.361-26.512-27.769v-23.648c0-50.16-38.695-91.007-86.348-91.007s-86.348 40.847-86.348 91.007V610.023c0.357 10.751 8.956 18.991 19.529 18.991h811.539c10.569 0 19.168-8.421 19.529-18.991v-165.891c0-50.16-38.695-91.007-86.348-91.007s-86.348 40.847-86.348 91.007V467.78c-0.717 15.406-12.541 27.769-27.232 27.769z"  horiz-adv-x="1024" />

    
    <glyph glyph-name="dingwei1" unicode="&#58938;" d="M509.220571 454.022095c-72.167619 0-130.82819 59.294476-130.82819 132.291048 0 72.899048 58.709333 132.242286 130.82819 132.242286 72.167619 0 130.876952-59.343238 130.876953-132.242286 0-72.996571-58.709333-132.291048-130.876953-132.291048z m0 228.205715a95.47581 95.47581 0 0 1-94.890666-95.914667A95.573333 95.573333 0 0 1 509.220571 490.300952 95.573333 95.573333 0 0 1 604.16 586.361905a95.524571 95.524571 0 0 1-94.939429 95.865905zM508.732952-8.728381l-13.653333 16.286476c-11.849143 14.140952-291.108571 349.574095-291.108571 568.56381 0 175.786667 136.97219 318.756571 305.249523 318.756571 167.643429 0 304.566857-142.969905 305.347048-318.659047 0.926476-219.087238-280.185905-554.520381-292.132571-568.710096l-13.702096-16.237714zM509.220571 858.550857C360.740571 858.550857 239.908571 731.867429 239.908571 576.121905c0-179.248762 212.406857-457.435429 268.921905-528.286476 56.807619 70.802286 270.57981 348.94019 269.799619 528.188952C777.947429 731.867429 657.16419 858.550857 509.220571 858.550857zM727.527619 229.912381v-35.888762h71.972571l71.972572-269.312H152.088381l71.972571 269.312H277.942857v35.937524H188.025905L98.157714-111.225905h827.245715l-89.916953 341.187048z"  horiz-adv-x="1024" />

    
    <glyph glyph-name="wujiaoxing1" unicode="&#58890;" d="M538.31171 896l134.970055-380.127748 403.26323-10.979551L756.804779 258.950754l114.265758-386.950754-332.680401 228.217814-332.758827-228.217814 114.265758 386.950754L0 504.892701l403.184805 10.979551z"  horiz-adv-x="1097" />

    
    <glyph glyph-name="liren" unicode="&#58924;" d="M335.950769-128c-47.47159 0-82.707692 5.828923-105.235692 17.197949-22.921846 11.552821-27.542974 26.518974-28.566974 32.374154a25.573744 25.573744 0 0 0-0.105026 6.826666L260.516103 417.608205 32.479179 700.836103a24.470974 24.470974 0 0 0-2.468102 27.044102c0.918974 1.627897 22.816821 41.143795 72.04759 81.394872C147.035897 846.034051 224.676103 890.748718 339.232821 895.684923 344.694154 896 350.339282 896 355.905641 896c86.724923 0 167.699692-30.011077 233.892103-86.724923 50.044718-42.797949 74.200615-85.727179 75.119589-87.565128a24.155897 24.155897 0 0 0-2.153025-26.834052l-221.078975-280.759794 54.088205-487.13518a23.630769 23.630769 0 0 0-7.82441-20.585026c-6.275282-5.723897-43.060513-34.395897-151.998359-34.395897z m-84.046769 61.124923c7.798154-4.306051 29.801026-12.498051 84.151795-12.498051 61.361231 0 94.444308 10.056205 109.357949 16.594051l-53.458052 481.28a23.814564 23.814564 0 0 0 5.041231 17.723077l216.536615 275.035897a332.458667 332.458667 0 0 1-57.028923 62.17518c-57.659077 48.941949-125.269333 73.622974-200.598974 73.622974-4.936205 0-9.662359-0.105026-14.493538-0.315077-81.106051-3.492103-151.18441-28.777026-208.108308-75.250871-25.284923-20.690051-42.036513-41.170051-51.383795-53.98318l223.415795-277.504c4.096-5.225026 5.960205-11.552821 5.251282-18.116923L251.877744-66.875077zM296.802462 362.916103h105.76082v-48.836924h-105.76082zM972.511179-124.324103H678.885744a24.523487 24.523487 0 0 0-24.470975 24.576l2.888205 536.891077c0 13.417026 11.027692 24.260923 24.470975 24.260923h290.73723c13.469538 0 24.444718-10.948923 24.444718-24.365948v-536.891077a24.365949 24.365949 0 0 0-24.444718-24.470975z m-269.154461 48.758154h244.473436V412.461949h-241.690257l-2.783179-488.027898zM916.795077 416.032821h-173.266051a23.972103 23.972103 0 0 0-18.169436 8.11323 24.812308 24.812308 0 0 0-6.170257 19.035898l1.234052 11.290256V717.482667c0 2.258051 0.288821 4.726154 1.024 6.984205 0.918974 3.150769 23.840821 77.902769 86.724923 91.634872 34.737231 7.588103 77.587692 44.845949 91.162256 58.551794A25.206154 25.206154 0 0 0 926.168615 880.246154a24.418462 24.418462 0 0 0 15.097436-22.528v-416.951795c0-13.653333-10.89641-24.681026-24.470974-24.681026z m-147.350974 48.863179h122.80123V804.969026c-20.952615-15.254974-47.47159-30.825026-73.570461-36.470154-26.834051-5.933949-43.795692-38.990769-49.230769-54.875898v-248.726974z"  horiz-adv-x="1024" />

    
    <glyph glyph-name="fanhui" unicode="&#58889;" d="M717.3632-51.2a25.6 25.6 0 0 1 18.1248 43.6992L369.2544 358.4 735.488 724.48a25.6 25.6 0 1 1-36.224 36.1984L314.88 376.576a25.6 25.6 0 0 1 0-36.1984l384.3328-384a25.6 25.6 0 0 1 18.1504-7.5776z"  horiz-adv-x="1024" />

    
    <glyph glyph-name="zhekou" unicode="&#58927;" d="M1023.917745 383.986518c0 37.270606-75.326215 65.394213-83.10799 100.309809-7.986558 36.007774 47.782828 94.746522 32.526454 127.307106-15.59768 33.004282-95.360873 24.847071-117.477496 53.243723-22.253146 28.464913 3.208276 106.316793-24.642287 129.081897-27.67991 22.662713-96.145876-19.898135-128.399286-3.993279-31.74145 15.700072-41.741713 97.169794-76.930353 105.361136C591.824457 903.215207 548.376214 834.442065 511.958873 834.442065c-36.417341 0-79.865584 68.773142-113.927915 60.854845-35.154509-8.191342-45.154773-89.661064-76.896222-105.327006-32.253409-15.938986-100.685245 26.655992-128.399286 3.99328-27.850563-22.765105-2.389141-100.616984-24.642287-129.116028-22.116623-28.328391-101.913946-20.20531-117.477496-53.243723-15.290505-32.526454 40.513012-91.299332 32.492323-127.307106C75.326215 449.414862 0 421.257124 0 383.952388c0-37.236475 75.326215-65.360083 83.10799-100.309809 8.020689-36.007774-47.782828-94.712391-32.526453-127.238845 15.59768-33.038413 95.360873-24.915332 117.511626-53.277853 22.184884-28.499044-3.242406-106.350923 24.608157-129.116028 27.67991-22.662713 96.145876 19.932265 128.433416 4.02741 31.70732-15.700072 41.741713-97.203925 76.896222-105.361136 34.06233-7.952428 77.510573 60.820714 113.927915 60.820714 36.417341 0 79.865584-68.773142 113.927914-60.820714 35.154509 8.191342 45.154773 89.661064 76.896223 105.327005 32.253409 15.938986 100.685245-26.690123 128.399285-4.027409 27.850563 22.765105 2.389141 100.616984 24.642287 129.116027 22.116623 28.396652 101.913946 20.239441 117.477496 53.311984 15.290505 32.492323-40.478882 91.231071-32.492323 127.238845C948.59153 318.592305 1023.917745 346.715912 1023.917745 383.986518z m-611.142371-167.000984c0-18.225736-3.754365-32.526454-11.194834-42.936284-7.4746-10.3757-19.795743-16.314423-37.031692-17.747908-17.440732-1.433485-34.915595-2.150227-52.390458-2.150227a1272.559104 1272.559104 0 0 1-12.491797 63.551162l35.086249-1.194571c10.170916 0 15.256374 6.860249 15.256374 20.614877v89.251497l-48.46544-10.102655-3.720234 69.080317c16.485076 2.081966 33.857547 4.573499 52.185674 7.440469v85.155826H300.144422V537.915486h49.830663V618.975641h62.800289v-81.060155h47.100216v-59.967449h-47.100216v-74.131645l53.550898 10.341569c-0.955657-3.549582-2.935231-25.256638-6.006984-65.257691l-47.543914-9.82961v-122.085126z m347.34703 171.574484h-67.407919v-237.446525h-62.766158v237.446525h-83.073859v-2.901101c0-101.53851-21.092706-181.301702-63.243986-239.357838a444.789869 444.789869 0 0 1-49.386966 55.155036c33.243196 41.57106 49.830664 107.784408 49.830663 198.605912V585.220486a1391.640738 1391.640738 0 0 1 250.655064 25.905119l20.307702-64.267904c-47.987612-7.372208-117.409235-14.710285-208.196608-22.082493v-74.814256h213.282067v-61.435065z"  horiz-adv-x="1024" />

    
    <glyph glyph-name="weixinzhifu" unicode="&#58894;" d="M390.382022 251.20008199999995c-61.291946-37.023203-70.382769 20.775774-70.382769 20.775774l-76.811198 194.149947c-29.559398 92.262185 25.577185 41.597058 25.577185 41.597059s47.30869-38.763998 83.216872-62.38421c35.885427-23.631589 76.788443-6.940428 76.788443-6.940429l502.179806 251.072837C838.289955 814.353257 685.247823 896 511.97605 896 229.204799 896 0 678.707707 0 410.647888c0-154.202662 75.889601-291.418342 194.115814-380.358224l-21.321906-132.755601s-10.399265-38.752621 25.622696-20.775774c24.541809 12.24246 87.108063 56.183336 124.358821 82.886918A535.232173 535.232173 0 0 1 511.998805-74.71560199999999c282.748496 0 511.998805 217.292293 511.998806 485.352112 0 77.641774-19.319422 150.971381-53.53232 216.063496-160.005316-104.265712-532.137425-346.589058-580.083269-375.499924z"  horiz-adv-x="1024" />

    
    <glyph glyph-name="add" unicode="&#58896;" d="M510.352119-16.416237000000024c-220.548741 0-399.339141 178.82643-399.339141 399.403615S289.803378 782.377719 510.352119 782.377719c220.550637 0 399.341037-178.813156 399.341037-399.390341S730.902756-16.416237000000024 510.352119-16.416237000000024zM510.352119 732.455822c-192.982281 0-349.421037-156.461511-349.421037-349.468444S317.369837 33.51703699999996 510.352119 33.51703699999996s349.421037 156.463407 349.421037 349.470341S703.3344 732.455822 510.352119 732.455822zM660.104533 358.02074100000004L535.313067 358.02074100000004l0-124.81043c0-13.778489-11.174874-24.957156-24.959052-24.957156-13.784178 0-24.957156 11.178667-24.957156 24.957156l0 124.81043-124.795259 0c-13.784178 0-24.959052 11.17677-24.959052 24.966637 0 13.780385 11.17677 24.957156 24.959052 24.957156l124.795259 0 0 124.816119c0 13.778489 11.174874 24.951467 24.957156 24.951467 13.786074 0 24.959052-11.171081 24.959052-24.951467l0-124.816119 124.791467 0c13.786074 0 24.959052-11.17677 24.959052-24.957156C685.063585 369.19751099999996 673.890607 358.02074100000004 660.104533 358.02074100000004z"  horiz-adv-x="1024" />

    
    <glyph glyph-name="zan2" unicode="&#58897;" d="M861.577 467.305h-223.037c86.425 319.186-59.547 335.487-59.547 335.487-61.867 0-49.042-48.918-53.716-57.076 0-156.096-165.796-278.407-165.796-278.407v-442.661c0-43.695 59.547-59.433 82.908-59.433h335.111c31.537 0 57.221 82.709 57.221 82.709 82.903 281.911 82.903 365.789 82.903 365.789 0.001 58.247-56.046 53.591-56.046 53.591v0 0zM861.577 467.305zM267.943 467.159h-133.553c-27.581 0-28.006-27.09-28.006-27.09l27.581-446.441c0-28.416 28.464-28.416 28.464-28.416h115.593c24.081 0 23.865 18.798 23.865 18.798v449.296c0 34.287-33.945 33.854-33.945 33.854v0 0zM267.943 467.159z"  horiz-adv-x="1024" />

    
    <glyph glyph-name="chakanpinglun" unicode="&#58908;" d="M793.548902 266.47505c-24.015968 0-43.944112-19.417166-43.944112-43.944112v-219.209581c0-24.015968-19.417166-43.944112-43.944111-43.944111H135.92016c-24.015968 0-43.944112 19.417166-43.944112 43.944111V704.894212c0 24.015968 19.417166 43.944112 43.944112 43.944111h438.419161c24.015968 0 43.944112 19.417166 43.944112 43.944112s-19.417166 43.944112-43.944112 43.944112H91.976048C43.433134 836.726547 4.087824 797.381238 4.087824 748.838323v-788.950099c0-48.542914 39.345309-87.888224 87.888224-87.888224h657.628742c48.542914 0 87.888224 39.345309 87.888224 87.888224v263.153692c-0.510978 24.015968-19.928144 43.433134-43.944112 43.433134zM989.253493 865.852295c-19.417166 19.417166-44.45509 30.147705-70.51497 30.147705-26.05988 0-51.097804-10.730539-70.51497-30.147705-3.576846-3.576846-5.620758-8.686627-5.620759-13.796407s2.043912-10.219561 5.620759-13.796407l41.389221-41.389222c25.548902-26.05988 53.141717-53.141717 72.047905-72.558882 3.576846-4.087824 8.686627-5.620758 13.796407-5.620758s10.219561 2.043912 13.796407 5.620758c19.417166 19.928144 30.147705 45.477046 29.636727 72.047904 0 25.548902-10.730539 50.586826-29.636727 69.493014zM817.053892 809.133733c-3.576846 3.576846-8.686627 5.620758-13.796407 5.620758-5.10978 0-10.219561-2.043912-13.796407-5.620758L380.167665 396.774451c-3.576846-3.576846-5.10978-7.664671-5.620759-12.263473l-50.586826-159.42515c-2.043912-7.153693-0.510978-14.818363 4.598802-19.928143 3.576846-3.576846 8.686627-5.620758 13.796407-5.620759 2.043912 0 4.087824 0.510978 6.131737 1.021956l161.98004 52.119761c3.576846 1.021956 6.642715 3.576846 9.197605 6.131736l407.760479 410.826348c7.664671 7.664671 7.664671 19.928144 0 27.592814L817.053892 809.133733z"  horiz-adv-x="1024" />

    
    <glyph glyph-name="dianying" unicode="&#58898;" d="M425.874969 625.663992L316.33618 708.6070520000001 222.316853 684.7077360000001 331.855642 601.764676ZM948.162266 758.425691L921.711847 862.487745 828.095703 838.691783 937.633469 755.748722ZM628.528482 677.177226L518.992763 760.120286 424.621419 736.131943 534.159184 653.188882ZM829.347207 728.223832L719.809441 811.166893 627.278002 787.645177 736.81679 704.7021159999999ZM951.248557 567.328375l-0.252757 0 0 0.014326-29.494755-0.014326-84.859713-105.829304L724.606701 461.499072 809.430598 567.28028l-97.305163-0.040932-84.787058-105.740276L515.307837 461.499072l84.748173 105.691157-97.66946-0.040932-84.720543-105.650225-112.031563 0 84.680635 105.60213-95.765087-0.039909-84.644819-105.562221L97.871563 461.499072l81.366146 101.471043 44.331671 11.268648-109.537765 82.943061-27.13501-6.898107-2.882654 0 0-188.784644 0-67.255777 0-429.487751 867.825055 0L951.839005 402.502399l0 58.996672L951.839005 567.328375 951.248557 567.328375zM550.940382 312.83007699999996l189.837626 0 0-71.975265L550.940382 240.85481200000004 550.940382 312.83007699999996zM177.163467 314.009949l339.583139 0 0-71.975265L177.163467 242.03468399999997 177.163467 314.009949zM589.851601 138.20389799999998L175.984618 138.20389799999998l0 71.974241 413.866982 0L589.851601 138.20389799999998zM862.225011 137.021979L631.120516 137.021979l0 71.975265 231.104495 0L862.225011 137.021979z"  horiz-adv-x="1024" />

    
    <glyph glyph-name="jingyu" unicode="&#58912;" d="M602.435 409.035s37.342-178.139 176.66-113.564c0 0-58.219 55.21-33.83 87.636C769.64 415.556 864.57 512.535 864.57 512.535s77.58-79.441 9.058-154.943c0 0 68.32 58.061 150.364-8.337 0 0-113.045-172.36-186.61-104.633 0 0-133.03-209.5-452.678-234.52M301.96 646.915s-17.62 26.438-61.67 23.504c-44.051-2.942-17.62 64.597 30.835 55.795 48.463-8.81 24.967-46.985 30.835-79.299z m4.87 80.087s0.751 19.901-22.7 34.587c-23.459 14.686 14.784 39.286 36.149 17.02 21.38-22.273-4.578-33.034-13.448-51.607z m9.899-80.087s17.62 26.438 61.663 23.504c44.058-2.942 17.636 64.597-30.828 55.795-48.455-8.81-24.967-46.985-30.835-79.299zM0 310.142a309.337 309.337 0 1 1 618.674 0 309.337 309.337 0 1 1-618.674 0zM0.413 294.12s106.374-41.994 186.01 7.325c45.17 27.968 40.967-172.473 172.008-207.594 131.033-35.112 348.532 17.305 478.958 150.77 0 0-275.553-400.762-681.283-215.037 0-0.007-149.39 63.825-155.693 264.536zM264.551 311.996c-0.067-23.67 3.205-47.278 9.83-69.738a189.822 189.822 0 0 1 5.854-16.51c2.244-5.38 4.803-10.604 7.587-15.692l4.503-7.421 5.02-7.047 5.456-6.686c1.884-2.162 3.985-4.128 5.966-6.206 4.187-3.903 8.555-7.632 13.365-10.732 2.297-1.718 4.795-3.114 7.324-4.45 2.5-1.396 4.983-2.814 7.67-3.82 5.185-2.438 10.686-4.09 16.187-5.718 5.613-1.156 11.174-2.709 16.952-3.092l8.6-0.9 8.668-0.263c5.786-0.42 11.594 0.398 17.395 0.526 5.786 0.472 11.564 1.388 17.357 2.048l17.215 3.34-1.928-1.269c1.448 2.057 2.791 5.028 3.932 7.722 1.05 2.83 2.019 5.711 2.687 8.69 0.878 2.927 1.103 6.026 1.703 9.028 0.24 3.07 0.653 6.131 0.75 9.223-0.037 3.092 0.12 6.199-0.075 9.305l-0.802 9.313-1.599 9.253c-0.435 3.107-1.486 6.101-2.191 9.156-0.803 3.039-1.509 6.108-2.65 9.065l-3.091 8.938c-1.013 2.994-2.379 5.853-3.565 8.795-1.238 2.911-2.393 5.868-3.714 8.75-2.882 5.643-5.621 11.391-8.638 16.99l-9.553 16.562 10.829-15.804c3.37-5.426 6.484-11.024 9.748-16.548 1.509-2.821 2.867-5.74 4.3-8.6 1.366-2.911 2.98-5.71 4.128-8.72l3.512-8.997c1.268-2.972 2.116-6.094 3.054-9.186 0.848-3.114 2.034-6.146 2.611-9.343l2.012-9.53 1.208-9.703c0.33-3.25 0.292-6.53 0.457-9.809 0.023-3.279-0.277-6.566-0.442-9.853-0.586-3.257-0.796-6.566-1.711-9.785a73.738 73.738 0 0 0-2.844-9.584c-1.329-3.174-2.5-6.108-4.676-9.32l-0.683-1.013-1.245-0.255-17.605-3.64c-5.959-0.773-11.895-1.77-17.883-2.349-6.026-0.217-12.015-1.11-18.078-0.773l-9.08 0.173c-3.017 0.195-6.034 0.66-9.05 0.99-6.057 0.48-11.978 2.184-17.899 3.498-5.838 1.793-11.662 3.64-17.185 6.31-2.851 1.111-5.493 2.657-8.157 4.188a59.06 59.06 0 0 0-7.775 4.856c-5.103 3.384-9.725 7.421-14.13 11.639-2.079 2.229-4.278 4.352-6.251 6.671l-5.674 7.16-4.998 7.609-4.412 7.94a170.094 170.094 0 0 0-7.257 16.546 194.108 194.108 0 0 0-5.365 17.17 210.647 210.647 0 0 0-3.7 17.546 244.35 244.35 0 0 0-2.034 17.755c-0.9 11.864-1.11 23.789 0.06 35.6zM101.106 413.89a28.757 28.757 0 1 1 57.514 0 28.757 28.757 0 1 1-57.514 0zM129.863 419.428a10.859 10.859 0 1 1 21.718 0 10.859 10.859 0 1 1-21.718 0z"  horiz-adv-x="1024" />

    
    <glyph glyph-name="zan21" unicode="&#58900;" d="M861.577 467.305h-223.037c86.425 319.186-59.547 335.487-59.547 335.487-61.867 0-49.042-48.918-53.716-57.076 0-156.096-165.796-278.407-165.796-278.407v-442.661c0-43.695 59.547-59.433 82.908-59.433h335.111c31.537 0 57.221 82.709 57.221 82.709 82.903 281.911 82.903 365.789 82.903 365.789 0.001 58.247-56.046 53.591-56.046 53.591v0 0zM861.577 467.305zM267.943 467.159h-133.553c-27.581 0-28.006-27.09-28.006-27.09l27.581-446.441c0-28.416 28.464-28.416 28.464-28.416h115.593c24.081 0 23.865 18.798 23.865 18.798v449.296c0 34.287-33.945 33.854-33.945 33.854v0 0zM267.943 467.159z"  horiz-adv-x="1024" />

    


  </font>
</defs>
</svg>
